<?xml version="1.0" encoding="UTF-8"?>
<svg version="1.1" xmlns="http://www.w3.org/2000/svg" width="500" height="500">
<path d="M0 0 C1.05997192 -0.00807175 2.11994385 -0.01614349 3.21203613 -0.02445984 C5.45432944 -0.03823433 7.69664314 -0.04898586 9.93896484 -0.05688477 C12.18024056 -0.06829525 14.42149154 -0.08856855 16.66259766 -0.1184082 C38.61271038 -0.40957985 59.71304943 2.1951829 80.84375 8.23828125 C81.62556641 8.45742187 82.40738281 8.6765625 83.21289062 8.90234375 C99.57873 13.51672449 114.72950197 19.44082467 129.84375 27.23828125 C130.47659912 27.54709229 131.10944824 27.85590332 131.76147461 28.17407227 C136.53129521 30.5025504 141.04755527 33.08760248 145.53125 35.92578125 C146.21316406 36.35568359 146.89507812 36.78558594 147.59765625 37.22851562 C161.87920446 46.2938478 161.87920446 46.2938478 166.84375 50.23828125 C166.84375 50.89828125 166.84375 51.55828125 166.84375 52.23828125 C167.69646484 52.62886719 167.69646484 52.62886719 168.56640625 53.02734375 C180.43714825 59.3394021 197.11245798 73.85217149 202.84375 86.23828125 C203.50375 86.23828125 204.16375 86.23828125 204.84375 86.23828125 C206.43284493 88.07796423 207.89479261 89.91693711 209.34375 91.86328125 C209.78589844 92.45012695 210.22804688 93.03697266 210.68359375 93.64160156 C212.07820555 95.50141319 213.46138883 97.36935245 214.84375 99.23828125 C215.26785156 99.80450195 215.69195312 100.37072266 216.12890625 100.95410156 C226.43119154 114.736234 234.84462771 129.3586559 241.85986328 145.06420898 C242.56453748 146.62131165 243.28923074 148.16941505 244.02685547 149.71118164 C247.44242374 156.93946196 249.99923436 164.2882427 252.34375 171.92578125 C252.53695831 172.5512384 252.73016663 173.17669556 252.92922974 173.82110596 C256.71009791 186.12046582 259.73146349 198.54022222 261.84375 211.23828125 C262.11977051 212.82660767 262.11977051 212.82660767 262.40136719 214.44702148 C264.21362343 226.12250653 264.2403344 237.75895923 264.21875 249.55078125 C264.21853851 250.61487213 264.21832703 251.67896301 264.21810913 252.77529907 C264.18599585 268.9608477 263.38233912 284.39255997 259.84375 300.23828125 C259.65651367 301.14352539 259.46927734 302.04876953 259.27636719 302.98144531 C255.87656856 319.41674126 251.26787701 336.09823705 243.7890625 351.1796875 C242.86600481 353.18981726 242.3038582 355.0796885 241.84375 357.23828125 C241.18375 357.23828125 240.52375 357.23828125 239.84375 357.23828125 C239.84375 358.55828125 239.84375 359.87828125 239.84375 361.23828125 C239.18375 361.23828125 238.52375 361.23828125 237.84375 361.23828125 C237.75222656 361.91761719 237.66070312 362.59695313 237.56640625 363.296875 C236.67031429 366.94421145 235.06814403 370.02887316 233.28125 373.30078125 C232.92337402 373.96126465 232.56549805 374.62174805 232.19677734 375.30224609 C226.11068566 386.36277803 218.67228044 396.37298527 210.84375 406.23828125 C210.05484375 407.23472656 209.2659375 408.23117187 208.453125 409.2578125 C204.66330827 413.96930235 200.8078556 418.43398228 196.453125 422.62890625 C194.8240868 424.25794445 193.36972886 425.96007575 191.90625 427.73828125 C188.57361558 431.68321071 184.79546497 434.92846922 180.84375 438.23828125 C179.96847656 438.98980469 179.09320313 439.74132812 178.19140625 440.515625 C170.36382347 447.16644365 162.21580007 453.29111186 153.84375 459.23828125 C152.83441406 459.96144531 151.82507813 460.68460937 150.78515625 461.4296875 C143.48891444 466.48854716 135.84724725 470.47238772 127.85205078 474.28125 C125.93652108 475.19407232 124.02851844 476.12117177 122.12109375 477.05078125 C93.00863016 491.09527812 61.34716747 500.31259388 28.85546875 500.44140625 C27.71705032 500.44710632 26.5786319 500.4528064 25.40571594 500.4586792 C23.0011995 500.46808865 20.59667041 500.47464697 18.19213867 500.47851562 C14.58032572 500.48815034 10.96909995 500.51918431 7.35742188 500.55078125 C-6.42719725 500.61457944 -19.62343656 499.92007221 -33.15625 497.23828125 C-34.32696045 497.00850586 -35.4976709 496.77873047 -36.70385742 496.54199219 C-39.68373592 495.91191434 -42.63786509 495.22213696 -45.59375 494.48828125 C-47.15379761 494.10530884 -47.15379761 494.10530884 -48.74536133 493.71459961 C-63.22696616 490.06526605 -77.2708827 485.7411586 -90.44140625 478.62109375 C-92.7395569 477.45052493 -94.63955317 476.7090303 -97.15625 476.23828125 C-97.15625 475.57828125 -97.15625 474.91828125 -97.15625 474.23828125 C-97.84074219 474.14289063 -98.52523437 474.0475 -99.23046875 473.94921875 C-102.77680216 473.08749287 -105.78206839 471.58738893 -108.96875 469.86328125 C-109.619646 469.51241455 -110.27054199 469.16154785 -110.94116211 468.80004883 C-127.01075059 459.92711677 -141.84836103 448.40224417 -155.265625 435.91796875 C-157.05785628 434.17925905 -157.05785628 434.17925905 -159.15625 433.23828125 C-159.15625 432.57828125 -159.15625 431.91828125 -159.15625 431.23828125 C-160.0225 430.86703125 -160.0225 430.86703125 -160.90625 430.48828125 C-163.48564979 429.05528137 -165.21746592 427.45403449 -167.15625 425.23828125 C-167.15625 424.57828125 -167.15625 423.91828125 -167.15625 423.23828125 C-167.81625 423.23828125 -168.47625 423.23828125 -169.15625 423.23828125 C-169.15625 422.57828125 -169.15625 421.91828125 -169.15625 421.23828125 C-169.81625 421.23828125 -170.47625 421.23828125 -171.15625 421.23828125 C-172.93359375 419.32421875 -172.93359375 419.32421875 -175.09375 416.61328125 C-176.30224609 415.09734375 -176.30224609 415.09734375 -177.53515625 413.55078125 C-177.96328613 413.00808594 -178.39141602 412.46539062 -178.83251953 411.90625 C-180.14332947 410.25456179 -181.4734801 408.62035862 -182.80859375 406.98828125 C-194.76606157 392.24649331 -206.92342292 375.28067542 -213.15625 357.23828125 C-213.86587891 356.06265625 -213.86587891 356.06265625 -214.58984375 354.86328125 C-223.03273838 340.71459 -227.2117926 322.09158427 -230.90625 306.17578125 C-231.09251953 305.38824463 -231.27878906 304.60070801 -231.47070312 303.78930664 C-235.38493751 286.11036539 -236.70375073 268.62104836 -236.59375 250.55078125 C-236.59104095 249.50200806 -236.58833191 248.45323486 -236.58554077 247.37268066 C-236.52281486 231.33132954 -235.73005032 215.93268656 -232.15625 200.23828125 C-231.96901367 199.37074219 -231.78177734 198.50320312 -231.58886719 197.609375 C-230.31141705 191.75825625 -228.8149763 185.99226829 -227.15625 180.23828125 C-226.89972656 179.34657227 -226.64320313 178.45486328 -226.37890625 177.53613281 C-222.60283855 164.63155695 -218.06938591 152.31544539 -212.15625 140.23828125 C-211.78129395 139.46919434 -211.40633789 138.70010742 -211.02001953 137.90771484 C-202.32882346 120.29003418 -191.53741411 104.45000755 -179.15625 89.23828125 C-178.434375 88.28566406 -177.7125 87.33304687 -176.96875 86.3515625 C-176.370625 85.65417969 -175.7725 84.95679687 -175.15625 84.23828125 C-174.49625 84.23828125 -173.83625 84.23828125 -173.15625 84.23828125 C-172.8675 83.64015625 -172.57875 83.04203125 -172.28125 82.42578125 C-171.15625 80.23828125 -171.15625 80.23828125 -169.15625 77.23828125 C-168.49625 77.23828125 -167.83625 77.23828125 -167.15625 77.23828125 C-167.15625 76.57828125 -167.15625 75.91828125 -167.15625 75.23828125 C-166.49625 75.23828125 -165.83625 75.23828125 -165.15625 75.23828125 C-164.9190625 74.6659375 -164.681875 74.09359375 -164.4375 73.50390625 C-162.88031762 70.75035205 -161.03132203 69.07032491 -158.65625 66.98828125 C-157.8621875 66.281875 -157.068125 65.57546875 -156.25 64.84765625 C-154.15625 63.23828125 -154.15625 63.23828125 -152.15625 63.23828125 C-151.94484375 62.67367187 -151.7334375 62.1090625 -151.515625 61.52734375 C-149.70357865 58.47602432 -147.21601533 56.68311424 -144.40625 54.61328125 C-143.82842773 54.18015625 -143.25060547 53.74703125 -142.65527344 53.30078125 C-140.82856732 51.93789108 -138.99260079 50.58813612 -137.15625 49.23828125 C-136.31126953 48.60647949 -136.31126953 48.60647949 -135.44921875 47.96191406 C-126.10119775 40.97279064 -116.31474969 34.97303809 -106.15625 29.23828125 C-105.55893066 28.89635742 -104.96161133 28.55443359 -104.34619141 28.20214844 C-97.59425057 24.34666429 -90.82680108 21.13815085 -83.51953125 18.4765625 C-80.84113429 17.49043958 -78.2243206 16.43731649 -75.58984375 15.34375 C-69.4811943 12.89216595 -63.23225766 11.04102501 -56.90625 9.23828125 C-55.07646606 8.71609009 -55.07646606 8.71609009 -53.2097168 8.18334961 C-35.73886886 3.31875664 -18.15151557 0.13534478 0 0 Z " fill="#ECE5F8" transform="translate(236.15625,-0.23828125)"/>
<path d="M0 0 C0.99 0.33 1.98 0.66 3 1 C2.67 3.31 2.34 5.62 2 8 C0.515 8.495 0.515 8.495 -1 9 C-1.350625 10.175625 -1.70125 11.35125 -2.0625 12.5625 C-3.77562654 18.24286695 -6.84636362 22.83211889 -10.03344727 27.77490234 C-12.86533489 32.16961592 -15.48739703 36.60238339 -18 41.1875 C-29.21068434 60.85654498 -45.13007399 74.8386645 -67.31518555 80.92138672 C-73.8011994 82.54654178 -80.31226005 83.67847404 -87 84 C-87 84.66 -87 85.32 -87 86 C-82.33623538 86.39156045 -77.67155726 86.71617033 -73 87 C-71.91203125 87.06832031 -70.8240625 87.13664062 -69.703125 87.20703125 C-60.90676346 87.50243145 -53.31996706 85.57769381 -45 83 C-50.92806105 98.96016437 -64.36634082 113.83486872 -77 125 C-77.66 125 -78.32 125 -79 125 C-79 125.66 -79 126.32 -79 127 C-81.01209784 128.50142863 -83.00295848 129.85652526 -85.125 131.1875 C-85.76026611 131.58678711 -86.39553223 131.98607422 -87.05004883 132.39746094 C-106.13428028 144.2075817 -124.93547067 148.29956507 -147 151 C-131.815278 157.02152769 -115.61493419 156.27945994 -100 152 C-113.24347975 168.92222413 -133.7464647 180.70087678 -155 184 C-160.05811928 184.46432491 -165.12392885 184.83762933 -170.19702148 185.09082031 C-178.26907663 185.5929822 -185.11546901 187.3821639 -191.875 191.9375 C-198.4764775 201.45139405 -199.19041965 213.75132518 -199.125 225 C-199.12306641 225.81509033 -199.12113281 226.63018066 -199.11914062 227.4699707 C-199.06422428 235.33749934 -198.60581834 243.1568161 -198 251 C-198.54712646 251.1952124 -199.09425293 251.3904248 -199.65795898 251.59155273 C-222.4258881 259.79105023 -241.69023147 269.69023147 -259 287 C-260.66617115 287.04063832 -262.33388095 287.042721 -264 287 C-263.41900776 282.77482053 -261.96742299 279.91982722 -259.71875 276.31640625 C-258.70880981 274.68674927 -258.70880981 274.68674927 -257.6784668 273.02416992 C-256.95253899 271.87013663 -256.22637936 270.71624913 -255.5 269.5625 C-254.76611921 268.38487261 -254.03280338 267.20689295 -253.30004883 266.02856445 C-248.83142953 258.85665336 -244.31308643 251.7161503 -239.69921875 244.63671875 C-238.55559393 242.86212852 -237.45812398 241.05702947 -236.40625 239.2265625 C-234.84627346 236.75659965 -233.69406217 236.02188565 -231 235 C-231.11472656 234.21109375 -231.22945312 233.4221875 -231.34765625 232.609375 C-230.83704581 227.30820594 -228.24023618 223.6955051 -225.4375 219.25 C-224.88682861 218.35547119 -224.33615723 217.46094238 -223.76879883 216.53930664 C-220.53037171 211.31694389 -217.18700103 206.19409365 -213.578125 201.21875 C-211.20245652 197.87870125 -209.04434622 194.40754595 -206.87109375 190.93359375 C-202.37603812 183.88602218 -197.65521742 177.01756248 -192.75 170.25 C-191.90139404 169.07775879 -191.90139404 169.07775879 -191.03564453 167.88183594 C-186.14677759 161.1546447 -181.12406767 154.54968268 -176 148 C-175.10780585 146.84916533 -174.21588637 145.69811768 -173.32421875 144.546875 C-163.48898988 131.88960603 -153.08553937 119.80238323 -142.2421875 107.99609375 C-141.76966553 107.48151611 -141.29714355 106.96693848 -140.81030273 106.43676758 C-139.86282332 105.40580554 -138.91443611 104.37567697 -137.96508789 103.34643555 C-134.65907181 99.75283774 -131.46115203 96.08285281 -128.33984375 92.328125 C-127 91 -127 91 -125 91 C-124.73445312 90.40832031 -124.46890625 89.81664062 -124.1953125 89.20703125 C-120.9913983 83.29130733 -114.8306698 78.90450656 -109.79296875 74.578125 C-108.34479809 73.30348242 -106.97133859 71.94426856 -105.625 70.5625 C-104 69 -104 69 -102 69 C-101.76539063 68.42121094 -101.53078125 67.84242188 -101.2890625 67.24609375 C-99.69517798 64.46887073 -97.89230832 63.04364446 -95.375 61.0625 C-93.89386719 59.88494141 -93.89386719 59.88494141 -92.3828125 58.68359375 C-91.84043945 58.25546387 -91.29806641 57.82733398 -90.73925781 57.38623047 C-88.89083706 55.9129945 -87.06500862 54.41493548 -85.2421875 52.91015625 C-67.52723622 38.30666875 -49.07668476 25.15912818 -29 14 C-27.87851562 13.34 -26.75703125 12.68 -25.6015625 12 C-21.81409961 9.83138898 -17.88489302 8.0881112 -13.875 6.375 C-13.18535156 6.0759375 -12.49570312 5.776875 -11.78515625 5.46875 C-8.89438871 4.21958468 -6.00255862 3.00100298 -3.0703125 1.8515625 C-1.04583936 1.1741613 -1.04583936 1.1741613 0 0 Z " fill="#BEA4F0" transform="translate(387,112)"/>
<path d="M0 0 C0.66 0.33 1.32 0.66 2 1 C3.33687878 0.6811834 4.66964065 0.34501143 6 0 C9.87225032 -0.22200703 13.74700747 -0.18512959 17.625 -0.1875 C19.21828125 -0.20586914 19.21828125 -0.20586914 20.84375 -0.22460938 C21.85695313 -0.22654297 22.87015625 -0.22847656 23.9140625 -0.23046875 C24.8417041 -0.23457764 25.7693457 -0.23868652 26.72509766 -0.24291992 C29 0 29 0 31 2 C29.82244141 2.85271484 29.82244141 2.85271484 28.62109375 3.72265625 C22.63856972 8.1196279 17.07570926 12.55981161 12 18 C11.02457295 18.98289205 10.04575499 19.9624388 9.0625 20.9375 C8.381875 21.618125 7.70125 22.29875 7 23 C8.64788732 18.30985915 8.64788732 18.30985915 10.5625 16.625 C12.81410406 14.07970846 12.68969256 11.28925887 13 8 C12.2678125 8.29390625 11.535625 8.5878125 10.78125 8.890625 C9.11750721 9.55425274 7.45154976 10.21242791 5.78125 10.859375 C-30.54077639 25.03989215 -67.6082896 50.98372291 -95 79 C-99.53325399 83.61468969 -104.10784682 88.07465741 -109.04296875 92.26171875 C-113.52609626 96.2437382 -117.57520546 100.6482507 -121.625 105.0625 C-122.14642578 105.62976807 -122.66785156 106.19703613 -123.20507812 106.78149414 C-124.28195478 107.95326485 -125.35845225 109.12538415 -126.43457031 110.29785156 C-127.88697379 111.8771025 -129.34468859 113.45121092 -130.8046875 115.0234375 C-140.45147274 125.45315024 -149.72871136 136.1241884 -158.3046875 147.45703125 C-160.30524296 150.0999182 -162.33662394 152.71649939 -164.3828125 155.32421875 C-173.56778251 167.02996524 -182.46936911 178.78934069 -190.35546875 191.421875 C-192.0017966 194.00281653 -193.72934179 196.50301857 -195.5 199 C-198.59058395 203.36277064 -201.4728435 207.8311569 -204.3203125 212.35546875 C-206.28708161 215.45198662 -208.33328509 218.48806422 -210.3984375 221.51953125 C-211.65065412 223.45893993 -212.82876438 225.44624298 -213.9765625 227.44921875 C-214.32211182 228.04621582 -214.66766113 228.64321289 -215.02368164 229.25830078 C-216.02005523 230.98878277 -216.99681631 232.73051255 -217.97265625 234.47265625 C-220 237 -220 237 -222.74609375 237.37109375 C-223.48988281 237.24863281 -224.23367187 237.12617188 -225 237 C-225.37769531 237.95648438 -225.75539062 238.91296875 -226.14453125 239.8984375 C-228.22000664 244.73433158 -230.94820291 249.14220276 -233.6875 253.625 C-234.2227832 254.50800781 -234.75806641 255.39101563 -235.30957031 256.30078125 C-236.86879729 258.86980225 -238.43412992 261.43502489 -240 264 C-240.762104 265.25757911 -241.52387177 266.51536211 -242.28515625 267.7734375 C-244.16716574 270.86397396 -246.07682819 273.93494493 -248 277 C-248.34546875 277.56283691 -248.6909375 278.12567383 -249.046875 278.70556641 C-250.10023227 280.4167949 -251.17488992 282.11485375 -252.25 283.8125 C-253.18585938 285.30716797 -253.18585938 285.30716797 -254.140625 286.83203125 C-254.75421875 287.54746094 -255.3678125 288.26289063 -256 289 C-257.32 289 -258.64 289 -260 289 C-259.37923848 283.28382102 -258.33570542 277.83677511 -257 272.25 C-252.66309615 253.19390734 -253.30847213 233.39215877 -255 214 C-253.824375 213.62875 -252.64875 213.2575 -251.4375 212.875 C-240.4940018 209.20429684 -230.07217798 204.71540711 -219.828125 199.41796875 C-217 198 -217 198 -214 197 C-214 196.34 -214 195.68 -214 195 C-212.4221875 194.071875 -212.4221875 194.071875 -210.8125 193.125 C-205.48663736 189.36967881 -203.63937643 184.15485185 -202 178 C-201.30602893 171.90581516 -201.65510615 165.74026026 -201.875 159.625 C-202.55585352 138.13257943 -199.09182955 116.81568557 -186 99 C-185.34 99 -184.68 99 -184 99 C-183.71125 98.236875 -183.4225 97.47375 -183.125 96.6875 C-182 94 -182 94 -180 91 C-179.34 91 -178.68 91 -178 91 C-178.15984375 91.97453125 -178.3196875 92.9490625 -178.484375 93.953125 C-180.38260387 107.34842805 -179.02771707 119.47478737 -174 132 C-173.89510254 131.01942627 -173.89510254 131.01942627 -173.78808594 130.01904297 C-171.55558994 109.60713826 -167.24684206 93.43880671 -158 75 C-157.34 75 -156.68 75 -156 75 C-155.505 73.02 -155.505 73.02 -155 71 C-154.34 71 -153.68 71 -153 71 C-152.505 69.02 -152.505 69.02 -152 67 C-151.34 67 -150.68 67 -150 67 C-149.75121094 66.42636719 -149.50242187 65.85273438 -149.24609375 65.26171875 C-142.01703174 52.14063127 -123.17376176 39.58688088 -110 33 C-110.68649017 36.68536826 -111.58367743 40.29669446 -112.51074219 43.92797852 C-114.38603988 51.39514839 -115.60284022 58.24680493 -115 66 C-112.54038318 63.54038318 -112.0941844 61.54864414 -111 58.25 C-106.02458666 45.00662037 -95.56824723 31.11371704 -84 23 C-81.4921875 22.390625 -81.4921875 22.390625 -79 22 C-74.06136153 19.93561736 -69.4728132 17.4812943 -65.25 14.1875 C-61.61655011 11.74190873 -60.21507479 11.90420285 -56 12 C-54.08743288 10.11922127 -54.08743288 10.11922127 -53 8 C-51.35 8.33 -49.7 8.66 -48 9 C-48 8.34 -48 7.68 -48 7 C-43.76194612 5.38550329 -40.49421531 5 -36 5 C-34.948125 4.62875 -33.89625 4.2575 -32.8125 3.875 C-31.4203125 3.441875 -31.4203125 3.441875 -30 3 C-29.01 3.66 -28.02 4.32 -27 5 C-26.34 4.34 -25.68 3.68 -25 3 C-22.65234375 2.62109375 -22.65234375 2.62109375 -19.9375 2.4375 C-16.66160436 2.46018047 -16.66160436 2.46018047 -14 1 C-10.63177974 0.92756516 -7.27456608 1.00392059 -3.90625 1.0625 C-1.10693626 1.33751634 -1.10693626 1.33751634 0 0 Z " fill="#D4C4F6" transform="translate(376,105)"/>
<path d="M0 0 C1.31054208 0.26006866 2.62303921 0.51052334 3.9375 0.75 C9.79094326 2.16458212 15.06384323 5.65131125 20 9 C20.33 9.66 20.66 10.32 21 11 C18.39546825 10.35561067 15.7913709 9.7095496 13.1875 9.0625 C12.44951172 8.88009766 11.71152344 8.69769531 10.95117188 8.50976562 C7.92939016 7.7577385 4.95543282 6.98514427 2 6 C-10.4930747 5.13876861 -23.00405572 5.21924584 -35 9 C-35.80308594 9.19335938 -36.60617187 9.38671875 -37.43359375 9.5859375 C-45.83020831 11.70921934 -53.40220835 15.94975946 -61 20 C-61.87527344 20.46148437 -62.75054687 20.92296875 -63.65234375 21.3984375 C-70.24085344 25.11503271 -76.11320271 29.81317511 -82.02514648 34.5065918 C-85.55104753 37.27702966 -88.64514311 39.66530909 -93 41 C-93 41.66 -93 42.32 -93 43 C-95.08780573 44.81404446 -97.18051525 46.51101702 -99.375 48.1875 C-100.01985352 48.68507813 -100.66470703 49.18265625 -101.32910156 49.6953125 C-106.45037528 53.62493957 -111.60210282 57.4557763 -117 61 C-117.60199219 61.40186523 -118.20398438 61.80373047 -118.82421875 62.21777344 C-135.78407359 73.44506613 -153.94658266 81.37033146 -174 85 C-175.71703125 85.33451172 -175.71703125 85.33451172 -177.46875 85.67578125 C-189.86696754 87.72818888 -202.47577194 87.18499598 -215 87 C-214.505 86.01 -214.505 86.01 -214 85 C-211.18015347 84.47375032 -208.40375286 84.05581567 -205.5625 83.6875 C-195.7494082 82.25928623 -186.44050273 80.01590243 -177 77 C-176.15066895 76.7309082 -175.30133789 76.46181641 -174.42626953 76.18457031 C-146.95967054 67.30171261 -123.9242095 52.17673268 -102.12109375 33.5390625 C-84.00023701 18.18240425 -84.00023701 18.18240425 -75 15 C-75 14.34 -75 13.68 -75 13 C-63.28125 7.140625 -63.28125 7.140625 -61.1262207 6.07128906 C-59.73821784 5.37194855 -58.35852875 4.65578452 -56.98901367 3.92089844 C-52.20651203 1.39117415 -47.60631478 -0.15463088 -42.3125 -1.25 C-41.09723633 -1.50148804 -41.09723633 -1.50148804 -39.85742188 -1.75805664 C-26.59469828 -4.24925004 -12.81296265 -4.51417545 0 0 Z " fill="#CFB9F2" transform="translate(355,317)"/>
<path d="M0 0 C0.99 0.33 1.98 0.66 3 1 C2.47599609 1.92232422 2.47599609 1.92232422 1.94140625 2.86328125 C1.48636719 3.67152344 1.03132813 4.47976563 0.5625 5.3125 C0.11003906 6.11300781 -0.34242188 6.91351563 -0.80859375 7.73828125 C-2.11090548 10.06211429 -2.11090548 10.06211429 -3 13 C-3.99 13.66 -4.98 14.32 -6 15 C-6.68132451 16.66072849 -7.34742127 18.327767 -8 20 C-9 21 -10 22 -11 23 C-11 23.99 -11 24.98 -11 26 C-10.34 26 -9.68 26 -9 26 C-8.505 24.515 -8.505 24.515 -8 23 C-7.505 23.99 -7.505 23.99 -7 25 C-6.01 24.67 -5.02 24.34 -4 24 C-1.16905055 31.26200077 1.35330936 38.51424651 3.0625 46.125 C3.34222656 47.34445312 3.62195313 48.56390625 3.91015625 49.8203125 C4 53 4 53 2.05859375 55.4296875 C1.37925781 55.94789063 0.69992188 56.46609375 0 57 C1.65 57 3.3 57 5 57 C2 59 2 59 -1 59 C-1.33 59.99 -1.66 60.98 -2 62 C-4.265625 63.140625 -4.265625 63.140625 -7.25 64.25 C-23.63728545 70.77384824 -37.53907524 80.53907524 -50 93 C-51.66617115 93.04063832 -53.33388095 93.042721 -55 93 C-54.41900776 88.77482053 -52.96742299 85.91982722 -50.71875 82.31640625 C-49.70880981 80.68674927 -49.70880981 80.68674927 -48.6784668 79.02416992 C-47.95253899 77.87013663 -47.22637936 76.71624913 -46.5 75.5625 C-45.76611921 74.38487261 -45.03280338 73.20689295 -44.30004883 72.02856445 C-39.83142953 64.85665336 -35.31308643 57.7161503 -30.69921875 50.63671875 C-29.55559393 48.86212852 -28.45812398 47.05702947 -27.40625 45.2265625 C-25.84627346 42.75659965 -24.69406217 42.02188565 -22 41 C-22.11472656 40.21109375 -22.22945312 39.4221875 -22.34765625 38.609375 C-21.83704251 33.30817166 -19.24019685 29.69558558 -16.4375 25.25 C-15.889729 24.35982178 -15.34195801 23.46964355 -14.77758789 22.55249023 C-11.4836486 17.23907273 -8.10431134 12.01223046 -4.40234375 6.97265625 C-2.80117204 4.72031164 -1.39683738 2.38332787 0 0 Z " fill="#A89DEB" transform="translate(178,306)"/>
<path d="M0 0 C0.99 0.495 0.99 0.495 2 1 C-7.70972252 9.98053387 -7.70972252 9.98053387 -11.3125 12.25 C-14.31038966 14.2021142 -16.53771555 16.41144455 -19 19 C-20.62836738 20.7041054 -22.28769752 22.38025441 -24 24 C-24.66 24 -25.32 24 -26 24 C-26 24.66 -26 25.32 -26 26 C-27.36328125 27.33984375 -27.36328125 27.33984375 -29.3125 28.9375 C-33.57534743 32.5368989 -37.4615561 36.4186798 -41.31762695 40.44311523 C-42.50909296 41.66490714 -43.75093864 42.83715331 -45 44 C-45.66 44 -46.32 44 -47 44 C-47.26039063 44.57492188 -47.52078125 45.14984375 -47.7890625 45.7421875 C-49.09018252 48.16814677 -50.56876055 50.05058526 -52.375 52.125 C-53.25285156 53.14980469 -53.25285156 53.14980469 -54.1484375 54.1953125 C-56.95372863 56.9295836 -59.02962969 57.93806147 -62.9375 58.1875 C-66.91832036 59.24363601 -67.78070962 60.97933435 -69.82421875 64.40625 C-71 66 -71 66 -74 67 C-75.71614849 68.6553521 -75.71614849 68.6553521 -77.375 70.6875 C-77.98601562 71.40808594 -78.59703125 72.12867188 -79.2265625 72.87109375 C-79.81179687 73.57363281 -80.39703125 74.27617187 -81 75 C-81.48210937 75.56847656 -81.96421875 76.13695312 -82.4609375 76.72265625 C-84.26259734 78.85735018 -86.01137926 81.01517235 -87.6875 83.25 C-89.39632726 85.52843634 -91.39724564 87.38705986 -93.4375 89.375 C-95.52152898 91.50985895 -97.25831252 93.59481253 -99 96 C-100.44795414 97.44795414 -101.90787021 98.88397889 -103.375 100.3125 C-108.25501906 104.98730951 -108.25501906 104.98730951 -110.4375 111.125 C-110.7159375 112.548125 -110.7159375 112.548125 -111 114 C-113.4375 115.625 -113.4375 115.625 -116 117 C-116.309375 117.61875 -116.61875 118.2375 -116.9375 118.875 C-118 121 -118 121 -120.875 123.25 C-124.07462282 125.76011572 -125.35819825 128.416064 -126.98828125 132.08203125 C-128 134 -128 134 -130.75 136.6875 C-133.26951262 138.80357555 -133.26951262 138.80357555 -133.3125 141.8125 C-133.209375 142.534375 -133.10625 143.25625 -133 144 C-133.99 144 -134.98 144 -136 144 C-136 144.99 -136 145.98 -136 147 C-137.32 147 -138.64 147 -140 147 C-142.21473892 149.80152918 -142.21473892 149.80152918 -142.25 152.875 C-143.27764488 157.15685365 -145.55744196 158.4005174 -149 161 C-149.66 161.99 -150.32 162.98 -151 164 C-151.66 164 -152.32 164 -153 164 C-151.74080278 160.60802821 -150.30574376 157.71947788 -148.265625 154.734375 C-147.73388672 153.95513672 -147.20214844 153.17589844 -146.65429688 152.37304688 C-144.05254483 148.6408996 -141.41996508 144.93366048 -138.75 141.25 C-137.90139404 140.07775879 -137.90139404 140.07775879 -137.03564453 138.88183594 C-132.14677759 132.1546447 -127.12406767 125.54968268 -122 119 C-121.10780585 117.84916533 -120.21588637 116.69811768 -119.32421875 115.546875 C-109.48898988 102.88960603 -99.08553937 90.80238323 -88.2421875 78.99609375 C-87.76966553 78.48151611 -87.29714355 77.96693848 -86.81030273 77.43676758 C-85.86282332 76.40580554 -84.91443611 75.37567697 -83.96508789 74.34643555 C-80.65907181 70.75283774 -77.46115203 67.08285281 -74.33984375 63.328125 C-73 62 -73 62 -71 62 C-70.60167969 61.11248047 -70.60167969 61.11248047 -70.1953125 60.20703125 C-66.9913983 54.29130733 -60.8306698 49.90450656 -55.79296875 45.578125 C-54.34479809 44.30348242 -52.97133859 42.94426856 -51.625 41.5625 C-50 40 -50 40 -48 40 C-47.76539063 39.42121094 -47.53078125 38.84242188 -47.2890625 38.24609375 C-45.69517798 35.46887073 -43.89230832 34.04364446 -41.375 32.0625 C-40.38757813 31.27746094 -39.40015625 30.49242187 -38.3828125 29.68359375 C-37.84043945 29.25546387 -37.29806641 28.82733398 -36.73925781 28.38623047 C-34.89083706 26.9129945 -33.06500862 25.41493548 -31.2421875 23.91015625 C-22.38435028 16.61037865 -13.30853258 9.7124343 -4 3 C-2.66356912 2.00414344 -1.32858284 1.00630284 0 0 Z " fill="#A790DF" transform="translate(333,141)"/>
<path d="M0 0 C1.32 0.66 2.64 1.32 4 2 C-20.0606082 20.50816015 -50.52911859 28.27657772 -80.5 28.0625 C-82.30597656 28.05573242 -82.30597656 28.05573242 -84.1484375 28.04882812 C-87.09901073 28.0371195 -90.04947859 28.02071995 -93 28 C-92.67 27.34 -92.34 26.68 -92 26 C-89.18015347 25.47375032 -86.40375286 25.05581567 -83.5625 24.6875 C-62.38424199 21.60518095 -40.11146947 15.17203537 -21.92138672 3.70605469 C-17.46832166 0.95105963 -17.46832166 0.95105963 -14.5703125 1.25390625 C-13.79300781 1.62322266 -13.79300781 1.62322266 -13 2 C-14.1446875 2.680625 -14.1446875 2.680625 -15.3125 3.375 C-20.07857978 6.25681568 -21.47720863 7.61166129 -23 13 C-18.70376225 12.13277799 -15.18187379 10.09804729 -11.33984375 8.05859375 C-9 7 -9 7 -6 7 C-6 5.68 -6 4.36 -6 3 C-5.34 2.67 -4.68 2.34 -4 2 C-3.01 2.33 -2.02 2.66 -1 3 C-0.67 2.01 -0.34 1.02 0 0 Z " fill="#AFA5E8" transform="translate(233,376)"/>
<path d="M0 0 C0.99 0.33 1.98 0.66 3 1 C2.65066406 1.61488281 2.30132812 2.22976563 1.94140625 2.86328125 C1.48636719 3.67152344 1.03132813 4.47976563 0.5625 5.3125 C0.11003906 6.11300781 -0.34242188 6.91351563 -0.80859375 7.73828125 C-2.11090548 10.06211429 -2.11090548 10.06211429 -3 13 C-3.99 13.66 -4.98 14.32 -6 15 C-6.68132451 16.66072849 -7.34742127 18.327767 -8 20 C-9 21 -10 22 -11 23 C-11 23.99 -11 24.98 -11 26 C-10.34 26 -9.68 26 -9 26 C-8.67 25.01 -8.34 24.02 -8 23 C-7.67 23.66 -7.34 24.32 -7 25 C-6.01 24.67 -5.02 24.34 -4 24 C-0.25998744 33.59394526 2.2519092 42.85254612 4 53 C0.72267016 55.18488656 -0.72267988 55.32219168 -4.5625 55.5625 C-8.42660649 55.73929053 -8.42660649 55.73929053 -12 57 C-14.3828125 56.66015625 -14.3828125 56.66015625 -17.125 56.0625 C-18.03507813 55.86785156 -18.94515625 55.67320312 -19.8828125 55.47265625 C-20.93082031 55.23869141 -20.93082031 55.23869141 -22 55 C-22 54.67 -22 54.34 -22 54 C-18.70896017 53.33021327 -15.4170703 52.66470178 -12.125 52 C-11.18785156 51.80921875 -10.25070313 51.6184375 -9.28515625 51.421875 C-8.38925781 51.24140625 -7.49335938 51.0609375 -6.5703125 50.875 C-5.74289551 50.70742188 -4.91547852 50.53984375 -4.06298828 50.3671875 C-2 50 -2 50 0 50 C-0.27714844 48.91460937 -0.55429688 47.82921875 -0.83984375 46.7109375 C-1.2058563 45.26565719 -1.5717346 43.82034288 -1.9375 42.375 C-2.11990234 41.66214844 -2.30230469 40.94929688 -2.49023438 40.21484375 C-3.51316799 36.16030687 -4.37957367 32.14052941 -5 28 C-6.32 28.33 -7.64 28.66 -9 29 C-8.25290691 34.7277137 -7.16268651 40.34159234 -6 46 C-11.28 46 -16.56 46 -22 46 C-21.67 44.68 -21.34 43.36 -21 42 C-20.34 42 -19.68 42 -19 42 C-19.33 39.36 -19.66 36.72 -20 34 C-19.34 34 -18.68 34 -18 34 C-15.81570628 29.94345451 -14.42835533 25.71342131 -13.3125 21.25 C-11.68537309 17.22092385 -9.36070298 14.05452713 -6.8203125 10.546875 C-4.37616858 7.1271715 -2.1913003 3.58576412 0 0 Z " fill="#A193E8" transform="translate(178,306)"/>
<path d="M0 0 C0.99 0.495 0.99 0.495 2 1 C0.16776232 2.41810177 -1.66560551 3.83469145 -3.5 5.25 C-4.36927124 5.92119873 -4.36927124 5.92119873 -5.25610352 6.60595703 C-8.46025532 9.07225763 -11.68008001 11.51317708 -14.93359375 13.9140625 C-23.43575679 20.19388004 -31.59427991 26.72912535 -39.53125 33.71044922 C-40.82634257 34.84753016 -42.13119202 35.97347775 -43.4375 37.09765625 C-46.53813387 39.769604 -49.48717392 42.47468846 -52.3125 45.4375 C-55 48 -55 48 -58 48 C-58 47.01 -58 46.02 -58 45 C-59.98 45 -61.96 45 -64 45 C-59.99171615 40.77251312 -55.64251057 37.25963168 -51 33.75 C-50.25322998 33.18224854 -49.50645996 32.61449707 -48.73706055 32.02954102 C-42.28763875 27.15617043 -35.71004159 22.5072969 -29 18 C-27.93136719 17.25878906 -26.86273438 16.51757812 -25.76171875 15.75390625 C-23 14 -23 14 -21 14 C-21 13.34 -21 12.68 -21 12 C-17.54914225 9.96618904 -14.08820304 7.95020566 -10.625 5.9375 C-9.64015625 5.35677734 -8.6553125 4.77605469 -7.640625 4.17773438 C-6.69960938 3.63310547 -5.75859375 3.08847656 -4.7890625 2.52734375 C-3.91975098 2.01937256 -3.05043945 1.51140137 -2.15478516 0.98803711 C-1.44370605 0.66198486 -0.73262695 0.33593262 0 0 Z " fill="#F3E5FB" transform="translate(331,141)"/>
<path d="M0 0 C-0.7109375 1.921875 -0.7109375 1.921875 -2 4 C-4.95766474 5.13181394 -7.85808761 5.46138645 -11 6 C-10.01 8.97 -9.02 11.94 -8 15 C-7.01 14.67 -6.02 14.34 -5 14 C-4.16512853 19.42666458 -6.06663652 22.02284982 -9.08203125 26.234375 C-11.85229956 30.22897778 -14.28091281 34.4114347 -16.75170898 38.59545898 C-19.0568677 42.48071318 -21.4621544 46.26213238 -24 50 C-24.97608217 47.07175348 -25.08226668 45.04386724 -25 42 C-24.401875 41.814375 -23.80375 41.62875 -23.1875 41.4375 C-20.00132293 39.34372649 -19.04854558 36.52504468 -18 33 C-17.07040353 28.3609561 -16.88190733 23.72370699 -17 19 C-15.68 18.67 -14.36 18.34 -13 18 C-13.57021934 12.6496441 -14.20734361 7.32212148 -15 2 C-9.75614911 0.2520497 -5.52677733 -0.19392201 0 0 Z " fill="#BCB3E5" transform="translate(154,328)"/>
<path d="M0 0 C1.67542976 0.28604898 3.34385343 0.61781233 5 1 C5.625 3.375 5.625 3.375 6 6 C5.34 6.66 4.68 7.32 4 8 C3.01 8 2.02 8 1 8 C0.59201172 9.09828125 0.59201172 9.09828125 0.17578125 10.21875 C-0.95252821 12.88770791 -2.22195628 15.08398423 -3.8125 17.5 C-6.32981182 21.36871079 -8.78094719 25.26492815 -11.17578125 29.2109375 C-12.02595825 30.60602539 -12.02595825 30.60602539 -12.89331055 32.02929688 C-14.03156068 33.89979506 -15.16469769 35.77341608 -16.29223633 37.65039062 C-23.28514016 49.09504672 -23.28514016 49.09504672 -29 51 C-28.0079414 47.13097147 -26.53767783 44.15319693 -24.2890625 40.90234375 C-20.99560711 36.04521388 -17.98415609 31.05130587 -15 26 C-11.57131456 20.19623558 -8.06678705 14.50371608 -4.22973633 8.95898438 C-2.64751055 6.43848018 -1.78614286 3.85870132 -1 1 C-0.67 0.67 -0.34 0.34 0 0 Z " fill="#F2EFFC" transform="translate(151,341)"/>
<path d="M0 0 C1.32 0 2.64 0 4 0 C4.84416163 2.53851462 5.67547299 5.08010854 6.5 7.625 C6.73847656 8.33785156 6.97695312 9.05070312 7.22265625 9.78515625 C8.57381808 13.99306024 9.28250044 17.52236798 9 22 C6.43923903 22.67404284 3.87673417 23.339414 1.3125 24 C0.2306543 24.28617187 0.2306543 24.28617187 -0.87304688 24.578125 C-4.66850961 25.54865428 -8.04615439 26.24955239 -12 26 C-12.33 24.35 -12.66 22.7 -13 21 C-9.33552568 19.35199144 -6.18796534 18.66419027 -2.1875 18.375 C-1.21167969 18.30023438 -0.23585937 18.22546875 0.76953125 18.1484375 C1.87361328 18.07496094 1.87361328 18.07496094 3 18 C2.69964844 17.11957031 2.39929688 16.23914063 2.08984375 15.33203125 C1.70957031 14.17058594 1.32929688 13.00914062 0.9375 11.8125 C0.55464844 10.66394531 0.17179688 9.51539063 -0.22265625 8.33203125 C-0.99406151 5.02545492 -0.96093996 3.20917686 0 0 Z " fill="#F0EBFB" transform="translate(169,334)"/>
<path d="M0 0 C-0.33 1.65 -0.66 3.3 -1 5 C-5.65798604 6.20465156 -10.23649415 7.28547412 -15 8 C-14.855625 8.969375 -14.71125 9.93875 -14.5625 10.9375 C-13.93952558 15.28052169 -13.46492141 19.63765234 -13 24 C-14.65 24.33 -16.3 24.66 -18 25 C-18.84179395 22.27318889 -19.67363069 19.54398557 -20.5 16.8125 C-20.85771484 15.65911133 -20.85771484 15.65911133 -21.22265625 14.48242188 C-22.40213617 10.55643872 -23.3326262 7.14951179 -23 3 C-7.25512528 -0.44419134 -7.25512528 -0.44419134 0 0 Z " fill="#F5F3FB" transform="translate(155,322)"/>
<path d="M0 0 C0.33 0.66 0.66 1.32 1 2 C1.99 1.67 2.98 1.34 4 1 C7.74001256 10.59394526 10.2519092 19.85254612 12 30 C8.72267016 32.18488656 7.27732012 32.32219168 3.4375 32.5625 C-0.42660649 32.73929053 -0.42660649 32.73929053 -4 34 C-6.3828125 33.66015625 -6.3828125 33.66015625 -9.125 33.0625 C-10.03507813 32.86785156 -10.94515625 32.67320312 -11.8828125 32.47265625 C-12.93082031 32.23869141 -12.93082031 32.23869141 -14 32 C-14 31.67 -14 31.34 -14 31 C-10.70896017 30.33021327 -7.4170703 29.66470178 -4.125 29 C-3.18785156 28.80921875 -2.25070313 28.6184375 -1.28515625 28.421875 C-0.38925781 28.24140625 0.50664062 28.0609375 1.4296875 27.875 C2.25710449 27.70742188 3.08452148 27.53984375 3.93701172 27.3671875 C6 27 6 27 8 27 C7.72285156 25.91460937 7.44570312 24.82921875 7.16015625 23.7109375 C6.7941437 22.26565719 6.4282654 20.82034288 6.0625 19.375 C5.88009766 18.66214844 5.69769531 17.94929688 5.50976562 17.21484375 C4.48683201 13.16030687 3.62042633 9.14052941 3 5 C1.68 5.33 0.36 5.66 -1 6 C-0.25339288 11.72398793 0.82877141 17.34853777 2 23 C-0.31 23 -2.62 23 -5 23 C-4.67 22.34 -4.34 21.68 -4 21 C-3.34 21 -2.68 21 -2 21 C-2.99 15.39 -3.98 9.78 -5 4 C-3.68 3.67 -2.36 3.34 -1 3 C-0.67 2.01 -0.34 1.02 0 0 Z " fill="#A195D9" transform="translate(170,329)"/>
<path d="M0 0 C0 1.65 0 3.3 0 5 C0.66 5 1.32 5 2 5 C1.34 6.32 0.68 7.64 0 9 C-9.54412642 9.32701956 -18.962127 9.64212793 -28 6 C-29.02702405 5.02777492 -30.03194206 4.03095288 -31 3 C-30.03960815 2.87153687 -30.03960815 2.87153687 -29.05981445 2.74047852 C-26.14381763 2.34947885 -23.22815863 1.95601325 -20.3125 1.5625 C-19.30509766 1.42779297 -18.29769531 1.29308594 -17.25976562 1.15429688 C-16.28330078 1.02216797 -15.30683594 0.89003906 -14.30078125 0.75390625 C-12.95753784 0.57323608 -12.95753784 0.57323608 -11.5871582 0.38891602 C-9.81994976 0.12325941 -8.06079775 -0.20081262 -6.31323242 -0.57446289 C-3.84108789 -1.02923312 -2.36119953 -0.78706651 0 0 Z " fill="#F6F1FB" transform="translate(270,259)"/>
<path d="M0 0 C0.495 0.99 0.495 0.99 1 2 C0.28457031 2.27972656 -0.43085938 2.55945313 -1.16796875 2.84765625 C-18.69180862 9.89799803 -33.61437349 19.61437349 -47 33 C-48.66617115 33.04063832 -50.33388095 33.042721 -52 33 C-51.43102154 28.67734423 -49.87210245 25.81856666 -47.5 22.1875 C-46.8709375 21.21167969 -46.241875 20.23585938 -45.59375 19.23046875 C-45.0678125 18.49441406 -44.541875 17.75835937 -44 17 C-43.67 17 -43.34 17 -43 17 C-42.67 18.65 -42.34 20.3 -42 22 C-41.34 21.34 -40.68 20.68 -40 20 C-40 20.66 -40 21.32 -40 22 C-38.68 21.67 -37.36 21.34 -36 21 C-36 20.34 -36 19.68 -36 19 C-34.35 18.34 -32.7 17.68 -31 17 C-31 16.34 -31 15.68 -31 15 C-30.01 15 -29.02 15 -28 15 C-27.67 14.01 -27.34 13.02 -27 12 C-24.3828125 10.39453125 -24.3828125 10.39453125 -21.125 8.8125 C-20.05507812 8.28269531 -18.98515625 7.75289063 -17.8828125 7.20703125 C-15 6 -15 6 -12 6 C-12 5.34 -12 4.68 -12 4 C-8.07561214 2.33510818 -4.10899581 1.12795963 0 0 Z " fill="#ACA3E1" transform="translate(175,366)"/>
<path d="M0 0 C0.66 0.33 1.32 0.66 2 1 C-9.22285714 22.96159104 -23.2348747 38.16898087 -46 48 C-46.66 48 -47.32 48 -48 48 C-48 47.34 -48 46.68 -48 46 C-46.96875 45.5875 -45.9375 45.175 -44.875 44.75 C-41.28552323 43.22410907 -38.22325133 41.19767136 -35 39 C-33.515 38.505 -33.515 38.505 -32 38 C-31.3503125 37.319375 -31.3503125 37.319375 -30.6875 36.625 C-28.42469502 34.44600261 -25.79548066 33.39774033 -23 32 C-22.67 31.34 -22.34 30.68 -22 30 C-21.34 30 -20.68 30 -20 30 C-19.9175 29.2575 -19.835 28.515 -19.75 27.75 C-18.85190201 24.45697405 -17.61583926 23.14023212 -15 21 C-14.34 21 -13.68 21 -13 21 C-13 20.01 -13 19.02 -13 18 C-12.34 18 -11.68 18 -11 18 C-11 17.34 -11 16.68 -11 16 C-10.34 16 -9.68 16 -9 16 C-8.73316406 15.28328125 -8.46632813 14.5665625 -8.19140625 13.828125 C-6.98119507 10.95536141 -5.55833748 8.41024431 -3.9375 5.75 C-3.41027344 4.87859375 -2.88304687 4.0071875 -2.33984375 3.109375 C-1 1 -1 1 0 0 Z " fill="#CEB6E8" transform="translate(372,143)"/>
<path d="M0 0 C0.99 0.33 1.98 0.66 3 1 C1.60249952 4.15835107 -0.05198234 6.32272825 -2.5 8.75 C-3.41265625 9.67039063 -3.41265625 9.67039063 -4.34375 10.609375 C-6 12 -6 12 -8 12 C-8 12.66 -8 13.32 -8 14 C-10.01202216 15.50137216 -12.00330691 16.85614873 -14.125 18.1875 C-14.75664062 18.58606201 -15.38828125 18.98462402 -16.0390625 19.39526367 C-28.50685328 27.13351923 -41.94890912 34.47569819 -57 34 C-53.47310887 31.64873925 -50.26154723 30.95857513 -46.1796875 29.9765625 C-45.46039063 29.65429688 -44.74109375 29.33203125 -44 29 C-43.67 27.68 -43.34 26.36 -43 25 C-39.7 25.66 -36.4 26.32 -33 27 C-33 26.34 -33 25.68 -33 25 C-28.43279772 21.29878672 -23.6324998 19.51644225 -18 18 C-16.63634717 17.04175747 -15.29205831 16.05278825 -14 15 C-13.34 15 -12.68 15 -12 15 C-11.71125 14.21625 -11.4225 13.4325 -11.125 12.625 C-10 10 -10 10 -8 8 C-7.01 8 -6.02 8 -5 8 C-2.33970917 5.95362244 -1.64643835 4.23219177 -1 1 C-0.67 0.67 -0.34 0.34 0 0 Z " fill="#B7A4E1" transform="translate(316,225)"/>
<path d="M0 0 C2.31 0 4.62 0 7 0 C6.01 0.33 5.02 0.66 4 1 C4 1.66 4 2.32 4 3 C2.44213049 3.88001789 0.85219515 4.70353305 -0.75 5.5 C-5.68408652 8.39215524 -7.6245342 10.78402638 -9.33203125 16.203125 C-12.22745682 28.3266613 -12.56709843 40.59191489 -13 53 C-13.66 52.67 -14.32 52.34 -15 52 C-15.56416955 16.78714081 -15.56416955 16.78714081 -11.5625 12.4375 C-11.046875 11.963125 -10.53125 11.48875 -10 11 C-8.7951851 8.73972655 -8.7951851 8.73972655 -7.8125 6.3125 C-7.46832031 5.50425781 -7.12414062 4.69601562 -6.76953125 3.86328125 C-6.51558594 3.24839844 -6.26164063 2.63351562 -6 2 C-4.35 2 -2.7 2 -1 2 C-0.67 1.34 -0.34 0.68 0 0 Z " fill="#A69ADD" transform="translate(200,296)"/>
<path d="M0 0 C0.66 0.66 1.32 1.32 2 2 C0.46395304 5.14191424 -1.05731159 8.08596738 -3 11 C-3.66 11 -4.32 11 -5 11 C-4.67 11.66 -4.34 12.32 -4 13 C-3.74139865 17.05142119 -3.69558446 18.54337669 -6 22 C-3.36 22 -0.72 22 2 22 C2.33 22.66 2.66 23.32 3 24 C0.03 24.66 -2.94 25.32 -6 26 C-6 27.65 -6 29.3 -6 31 C-4.02 31.33 -2.04 31.66 0 32 C-0.99 32.99 -1.98 33.98 -3 35 C-5.9375 33.6875 -5.9375 33.6875 -9 32 C-10.06546953 28.8035914 -10.07427838 26.34252724 -10 23 C-10.28875 23.763125 -10.5775 24.52625 -10.875 25.3125 C-12 28 -12 28 -14 31 C-14.66 31 -15.32 31 -16 31 C-16 31.99 -16 32.98 -16 34 C-17.5 35.6875 -17.5 35.6875 -19 37 C-19.66 36.67 -20.32 36.34 -21 36 C-20.52949219 35.26394531 -20.05898437 34.52789062 -19.57421875 33.76953125 C-18.95160156 32.79371094 -18.32898438 31.81789063 -17.6875 30.8125 C-17.07261719 29.84957031 -16.45773438 28.88664062 -15.82421875 27.89453125 C-14.64670156 26.02613674 -13.50428759 24.13493325 -12.40625 22.21875 C-10.84567314 19.75650651 -9.68879888 19.01988923 -7 18 C-7.0721875 17.14148438 -7.144375 16.28296875 -7.21875 15.3984375 C-6.95315117 11.27217001 -5.67210481 9.11588273 -3.5 5.625 C-2.8503125 4.56539063 -2.200625 3.50578125 -1.53125 2.4140625 C-1.0259375 1.61742187 -0.520625 0.82078125 0 0 Z " fill="#A59ADE" transform="translate(163,329)"/>
<path d="M0 0 C-8.04152065 8.58980615 -17.24418721 16.96536423 -28 22 C-28.99 21.67 -29.98 21.34 -31 21 C-29.71186658 20.16121545 -28.41936744 19.32913217 -27.125 18.5 C-26.40570313 18.0359375 -25.68640625 17.571875 -24.9453125 17.09375 C-23 16 -23 16 -21 16 C-20.731875 15.360625 -20.46375 14.72125 -20.1875 14.0625 C-19 12 -19 12 -16 11 C-15.67 9.02 -15.34 7.04 -15 5 C-19.29 4.67 -23.58 4.34 -28 4 C-28 3.67 -28 3.34 -28 3 C-27.12859375 2.96261719 -26.2571875 2.92523438 -25.359375 2.88671875 C-18.04605628 2.48306155 -11.3653185 1.57438427 -4.328125 -0.4765625 C-2 -1 -2 -1 0 0 Z " fill="#C2B5E1" transform="translate(287,265)"/>
<path d="M0 0 C0.33 0 0.66 0 1 0 C1.66 2.64 2.32 5.28 3 8 C2.34 8 1.68 8 1 8 C0.93941406 8.60328125 0.87882812 9.2065625 0.81640625 9.828125 C0.73261719 10.62734375 0.64882812 11.4265625 0.5625 12.25 C0.48128906 13.03890625 0.40007812 13.8278125 0.31640625 14.640625 C0 17 0 17 -0.59765625 19.109375 C-1.2115801 21.20987429 -1.2115801 21.20987429 0 24 C0.66 24.33 1.32 24.66 2 25 C2.33 23.02 2.66 21.04 3 19 C4.32 18.67 5.64 18.34 7 18 C5.68018255 22.68187876 3.80204328 26.00374921 0.875 29.875 C0.15054688 30.84179688 -0.57390625 31.80859375 -1.3203125 32.8046875 C-1.87460938 33.52914062 -2.42890625 34.25359375 -3 35 C-3.99 34.67 -4.98 34.34 -6 34 C-5.2829949 27.42745328 -3.9748673 21.1396539 -2.4609375 14.7109375 C-1.33348554 9.81409391 -0.54508593 4.99662106 0 0 Z " fill="#C0B9E5" transform="translate(122,360)"/>
<path d="M0 0 C0.33 0 0.66 0 1 0 C1.83487147 5.42666458 -0.06663652 8.02284982 -3.08203125 12.234375 C-5.85229956 16.22897778 -8.28091281 20.4114347 -10.75170898 24.59545898 C-13.0568677 28.48071318 -15.4621544 32.26213238 -18 36 C-18.97608217 33.07175348 -19.08226668 31.04386724 -19 28 C-18.401875 27.814375 -17.80375 27.62875 -17.1875 27.4375 C-12.76480675 24.53115872 -11.91758211 18.96195494 -10.8125 14.0625 C-10.53472143 12.70974092 -10.26136553 11.35602585 -10 10 C-8.68 10.33 -7.36 10.66 -6 11 C-5.67 9.68 -5.34 8.36 -5 7 C-4.34 7 -3.68 7 -3 7 C-2.690625 6.030625 -2.38125 5.06125 -2.0625 4.0625 C-1 1 -1 1 0 0 Z " fill="#C8C1E9" transform="translate(148,342)"/>
<path d="M0 0 C1.19549721 3.45831358 0.79593822 5.48183163 -0.36328125 8.9140625 C-0.67330078 9.83960938 -0.98332031 10.76515625 -1.30273438 11.71875 C-1.80256836 13.15734375 -1.80256836 13.15734375 -2.3125 14.625 C-2.63412109 15.59179688 -2.95574219 16.55859375 -3.28710938 17.5546875 C-5.72593419 24.72593419 -5.72593419 24.72593419 -8 27 C-8 25.68 -8 24.36 -8 23 C-8.26303407 20.47487291 -8.56779424 17.9571232 -8.87890625 15.4375 C-9.00117251 12.9763985 -8.85082417 11.30451803 -8 9 C-6.37446717 7.29319053 -4.70884005 5.62339805 -3 4 C-2.67 3.34 -2.34 2.68 -2 2 C-1.34 2 -0.68 2 0 2 C0 1.34 0 0.68 0 0 Z " fill="#DFD5F0" transform="translate(490,317)"/>
<path d="M0 0 C-0.78503906 0.56847656 -1.57007813 1.13695313 -2.37890625 1.72265625 C-8.36143028 6.1196279 -13.92429074 10.55981161 -19 16 C-19.97542705 16.98289205 -20.95424501 17.9624388 -21.9375 18.9375 C-22.9584375 19.9584375 -22.9584375 19.9584375 -24 21 C-22.35535858 16.3190975 -22.35535858 16.3190975 -20.46875 14.625 C-18.56500878 12.51873312 -18.51535686 11.11192463 -18.3125 8.3125 C-18.24675781 7.50425781 -18.18101562 6.69601563 -18.11328125 5.86328125 C-18.07589844 5.24839844 -18.03851563 4.63351563 -18 4 C-15.37764986 3.13683464 -12.75266548 2.28419221 -10.125 1.4375 C-9.37863281 1.19064453 -8.63226563 0.94378906 -7.86328125 0.68945312 C-2.2265625 -1.11328125 -2.2265625 -1.11328125 0 0 Z " fill="#D2B5EF" transform="translate(407,107)"/>
<path d="M0 0 C0.33 0.66 0.66 1.32 1 2 C0.25 3.59375 0.25 3.59375 -1 5.5 C-1.46792969 6.21414062 -1.93585938 6.92828125 -2.41796875 7.6640625 C-2.94003906 8.43492187 -3.46210938 9.20578125 -4 10 C-4.53238281 10.79148438 -5.06476563 11.58296875 -5.61328125 12.3984375 C-9.76384343 18.44776261 -14.01049198 24.60903732 -19 30 C-19.66 30 -20.32 30 -21 30 C-19.82744291 26.66272214 -18.81131596 24.22562513 -16 22 C-15.34 22 -14.68 22 -14 22 C-13.01 18.535 -13.01 18.535 -12 15 C-11.01 15 -10.02 15 -9 15 C-9.33 14.01 -9.66 13.02 -10 12 C-8.35 10.68 -6.7 9.36 -5 8 C-5.33 7.01 -5.66 6.02 -6 5 C-8.31 5 -10.62 5 -13 5 C-10.53698577 2.53698577 -8.72639964 2.23233479 -5.375 1.375 C-4.37210937 1.11460937 -3.36921875 0.85421875 -2.3359375 0.5859375 C-1.56507813 0.39257812 -0.79421875 0.19921875 0 0 Z " fill="#BCA9DC" transform="translate(341,195)"/>
<path d="M0 0 C0.99 0.33 1.98 0.66 3 1 C-11.43979197 14.09854647 -11.43979197 14.09854647 -15.8125 16.625 C-18.31004088 17.87195176 -18.31004088 17.87195176 -19 21 C-19.9075 21.144375 -20.815 21.28875 -21.75 21.4375 C-24.21476956 21.86409473 -26.58847107 22.35074221 -29 23 C-25.55172643 19.36086258 -22.04827981 16.51851486 -17.875 13.75 C-12.31532331 10.02707339 -7.26720737 5.98326585 -2.2421875 1.5546875 C-1.50226563 1.04164063 -0.76234375 0.52859375 0 0 Z " fill="#BFB2E5" transform="translate(250,353)"/>
<path d="M0 0 C3.40667322 0.44824648 5.07914607 1.05276405 8 3 C8 2.34 8 1.68 8 1 C11.75 -0.125 11.75 -0.125 14 1 C15.32860925 1.35169068 16.66158328 1.68770276 18 2 C-5.3611809 8.34045226 -5.3611809 8.34045226 -12 8 C-11.360625 7.896875 -10.72125 7.79375 -10.0625 7.6875 C-9.381875 7.460625 -8.70125 7.23375 -8 7 C-7.67 6.01 -7.34 5.02 -7 4 C-5.03384339 2.9349985 -3.03273074 1.93166826 -1 1 C-0.67 0.67 -0.34 0.34 0 0 Z " fill="#D6CEED" transform="translate(304,489)"/>
<path d="M0 0 C0.99 0.33 1.98 0.66 3 1 C-1.71747283 5.14670785 -6.56159938 9.03478125 -11.625 12.75 C-12.26695312 13.23082031 -12.90890625 13.71164062 -13.5703125 14.20703125 C-16.93189225 16.67999668 -19.99170236 18.67925825 -24 20 C-24 19.01 -24 18.02 -24 17 C-22.68 17 -21.36 17 -20 17 C-20 16.01 -20 15.02 -20 14 C-17.82412955 11.52400949 -15.75408051 9.83605368 -13 8 C-11.68 8 -10.36 8 -9 8 C-9 7.34 -9 6.68 -9 6 C-7.35 5.67 -5.7 5.34 -4 5 C-3.67 4.01 -3.34 3.02 -3 2 C-2.01 2 -1.02 2 0 2 C0 1.34 0 0.68 0 0 Z " fill="#BCB3CE" transform="translate(409,441)"/>
<path d="M0 0 C0.33 0 0.66 0 1 0 C1.04898438 0.59167969 1.09796875 1.18335938 1.1484375 1.79296875 C1.57132905 6.26249497 2.28293334 9.82998096 4 14 C3.67 14.99 3.34 15.98 3 17 C3.66 17.66 4.32 18.32 5 19 C4.835 20.11375 4.67 21.2275 4.5 22.375 C4.00318436 25.97691339 4.01916027 27.0870004 6 30 C5.34 30 4.68 30 4 30 C4.31195312 30.50789063 4.62390625 31.01578125 4.9453125 31.5390625 C8.16466552 37.23156089 8.16466552 37.23156089 7.25 41.5 C6.8375 42.325 6.425 43.15 6 44 C5.67 44 5.34 44 5 44 C4.34658992 40.70979189 3.70371479 37.41760467 3.0625 34.125 C2.88009766 33.2071875 2.69769531 32.289375 2.50976562 31.34375 C0.8656929 22.85435631 -0.15463413 14.53560814 -0.0625 5.875 C-0.05347656 4.75867188 -0.04445312 3.64234375 -0.03515625 2.4921875 C-0.02355469 1.66976563 -0.01195312 0.84734375 0 0 Z " fill="#737278" transform="translate(0,261)"/>
<path d="M0 0 C-1.0975223 2.99324263 -1.67682892 3.84610901 -4.625 5.25 C-5.40875 5.4975 -6.1925 5.745 -7 6 C-7 6.66 -7 7.32 -7 8 C-9.08768597 9.81394041 -11.18100914 11.51061989 -13.375 13.1875 C-14.00680176 13.67710205 -14.63860352 14.1667041 -15.28955078 14.67114258 C-20.4111493 18.61377531 -25.64274571 22.38323616 -31 26 C-31.33 25.34 -31.66 24.68 -32 24 C-30.58680023 22.87064804 -29.16928595 21.74669374 -27.75 20.625 C-26.96109375 19.99851562 -26.1721875 19.37203125 -25.359375 18.7265625 C-23 17 -23 17 -20.75 15.9375 C-20.1725 15.628125 -19.595 15.31875 -19 15 C-18.18828772 12.44480079 -18.18828772 12.44480079 -18 10 C-17.34 10 -16.68 10 -16 10 C-16 10.66 -16 11.32 -16 12 C-15.34 12 -14.68 12 -14 12 C-14 11.34 -14 10.68 -14 10 C-13.34 10 -12.68 10 -12 10 C-12 9.34 -12 8.68 -12 8 C-9.8828125 6.0546875 -9.8828125 6.0546875 -7.125 3.875 C-6.22007812 3.15054687 -5.31515625 2.42609375 -4.3828125 1.6796875 C-2 0 -2 0 0 0 Z " fill="#C4B7E5" transform="translate(269,352)"/>
<path d="M0 0 C0.66 0.33 1.32 0.66 2 1 C1.01 1.99 0.02 2.98 -1 4 C-0.01 5.485 -0.01 5.485 1 7 C-2.07999946 10.67230705 -4.2482602 11.56802365 -9 12 C-9.33 12.99 -9.66 13.98 -10 15 C-11.4375 16.6875 -11.4375 16.6875 -13 18 C-13.66 18 -14.32 18 -15 18 C-15 19.65 -15 21.3 -15 23 C-16.65 23.33 -18.3 23.66 -20 24 C-18.4722133 20.56247993 -16.49818944 17.81046312 -14 15 C-13.34 15 -12.68 15 -12 15 C-11.566875 14.1028125 -11.566875 14.1028125 -11.125 13.1875 C-10 11 -10 11 -8 8 C-7.34 8 -6.68 8 -6 8 C-6 7.34 -6 6.68 -6 6 C-5.34 6 -4.68 6 -4 6 C-3.566875 5.071875 -3.566875 5.071875 -3.125 4.125 C-2 2 -2 2 0 0 Z " fill="#ADACB3" transform="translate(75,69)"/>
<path d="M0 0 C0.99 0.33 1.98 0.66 3 1 C2.65066406 1.61488281 2.30132812 2.22976563 1.94140625 2.86328125 C1.48636719 3.67152344 1.03132812 4.47976563 0.5625 5.3125 C0.11003906 6.11300781 -0.34242188 6.91351563 -0.80859375 7.73828125 C-2.11090548 10.06211429 -2.11090548 10.06211429 -3 13 C-3.99 13.66 -4.98 14.32 -6 15 C-6.433125 16.1446875 -6.433125 16.1446875 -6.875 17.3125 C-8.28155088 20.67259378 -10.34417707 22.5538473 -13 25 C-13.33 24.01 -13.66 23.02 -14 22 C-12.42949799 19.22544644 -10.77254786 16.64494278 -9 14 C-7.80361406 12.1490564 -6.61524483 10.29310383 -5.42724609 8.43676758 C-3.62447982 5.62043343 -1.81183097 2.81050904 0 0 Z " fill="#9D8FDF" transform="translate(178,306)"/>
<path d="M0 0 C0.66 0.66 1.32 1.32 2 2 C1.69682206 5.53331069 0.18040435 7.13038933 -2.37890625 9.453125 C-3.38920898 10.38125 -3.38920898 10.38125 -4.41992188 11.328125 C-5.12697266 11.96234375 -5.83402344 12.5965625 -6.5625 13.25 C-7.27341797 13.8996875 -7.98433594 14.549375 -8.71679688 15.21875 C-10.47121022 16.82009373 -12.23230249 18.41335276 -14 20 C-14.99 19.67 -15.98 19.34 -17 19 C-16.01 18.67 -15.02 18.34 -14 18 C-14.33 16.68 -14.66 15.36 -15 14 C-14.21625 13.9175 -13.4325 13.835 -12.625 13.75 C-9.87716848 13.27676847 -9.87716848 13.27676847 -8.75 11.0625 C-8.5025 10.381875 -8.255 9.70125 -8 9 C-7.67 8.34 -7.34 7.68 -7 7 C-6.34 7 -5.68 7 -5 7 C-5 6.34 -5 5.68 -5 5 C-4.01 5 -3.02 5 -2 5 C-1.34 3.35 -0.68 1.7 0 0 Z " fill="#A49EB2" transform="translate(428,421)"/>
<path d="M0 0 C1.32 0.66 2.64 1.32 4 2 C-1.84540424 6.4964648 -7.91675103 10.1517957 -14.5 13.4375 C-15.55960938 13.96827148 -15.55960938 13.96827148 -16.640625 14.50976562 C-21.72957921 17 -21.72957921 17 -24 17 C-24 16.34 -24 15.68 -24 15 C-23.34 15 -22.68 15 -22 15 C-22 14.34 -22 13.68 -22 13 C-20.0848421 12.18395001 -18.16781166 11.37229368 -16.25 10.5625 C-15.18265625 10.11003906 -14.1153125 9.65757812 -13.015625 9.19140625 C-10.6586159 8.26020447 -8.47007165 7.5215928 -6 7 C-6 5.68 -6 4.36 -6 3 C-5.34 2.67 -4.68 2.34 -4 2 C-3.01 2.33 -2.02 2.66 -1 3 C-0.67 2.01 -0.34 1.02 0 0 Z " fill="#B9ADE4" transform="translate(233,376)"/>
<path d="M0 0 C0.66 0 1.32 0 2 0 C1.34 3.96 0.68 7.92 0 12 C-0.66 10.68 -1.32 9.36 -2 8 C-2.556875 8.99 -3.11375 9.98 -3.6875 11 C-10.65505637 23.13782789 -10.65505637 23.13782789 -15 27 C-13.09763742 20.09142011 -10.32091271 13.76522894 -6 8 C-5.34 8 -4.68 8 -4 8 C-3.71125 7.236875 -3.4225 6.47375 -3.125 5.6875 C-2 3 -2 3 0 0 Z " fill="#CBC3EB" transform="translate(196,196)"/>
<path d="M0 0 C3.625 0.375 3.625 0.375 7 1 C7.33 1.99 7.66 2.98 8 4 C10.31 3.34 12.62 2.68 15 2 C15 2.99 15 3.98 15 5 C15.95865509 7.33075929 15.95865509 7.33075929 19 9 C19 9.66 19 10.32 19 11 C13.53262809 9.25192871 8.24175152 7.34205919 3 5 C3 4.34 3 3.68 3 3 C1.35 2.67 -0.3 2.34 -2 2 C-1.34 1.34 -0.68 0.68 0 0 Z " fill="#ABA6BB" transform="translate(136,471)"/>
<path d="M0 0 C2.08186739 4.16373478 0.89071896 9.57000038 0 14 C-1.47120189 16.36460502 -2.70407174 17.35164125 -5 19 C-4.67 19.66 -4.34 20.32 -4 21 C-4.66 21.33 -5.32 21.66 -6 22 C-5.67 23.32 -5.34 24.64 -5 26 C-5.99 26.33 -6.98 26.66 -8 27 C-8.66 27.99 -9.32 28.98 -10 30 C-9.40358447 24.47951966 -8.02264798 19.64446093 -6.125 14.4375 C-5.86847656 13.70853516 -5.61195312 12.97957031 -5.34765625 12.22851562 C-3.82954813 7.99078164 -2.10530961 3.99000294 0 0 Z " fill="#A3A2A7" transform="translate(21,147)"/>
<path d="M0 0 C0.66 0.33 1.32 0.66 2 1 C-1.82608696 7.60869565 -1.82608696 7.60869565 -6 9 C-6.66 9 -7.32 9 -8 9 C-8.1546875 9.928125 -8.1546875 9.928125 -8.3125 10.875 C-9 13 -9 13 -12 15 C-12.33 14.67 -12.66 14.34 -13 14 C-13.433125 14.474375 -13.86625 14.94875 -14.3125 15.4375 C-16 17 -16 17 -19 18 C-17.66198588 14.9350908 -16.29092019 13.14639067 -13.6875 11.0625 C-11.4323851 9.21358592 -9.42282418 7.4090819 -7.375 5.3125 C-5.03703497 3.03606037 -2.93160679 1.42618709 0 0 Z " fill="#CDAEF1" transform="translate(344,134)"/>
<path d="M0 0 C1 3 1 3 0.22729492 4.70166016 C-0.18415771 5.30800293 -0.59561035 5.9143457 -1.01953125 6.5390625 C-1.46490234 7.20164062 -1.91027344 7.86421875 -2.36914062 8.546875 C-2.84544922 9.23265625 -3.32175781 9.9184375 -3.8125 10.625 C-4.27720703 11.31851562 -4.74191406 12.01203125 -5.22070312 12.7265625 C-8.71219236 17.85609618 -8.71219236 17.85609618 -11 19 C-11.66 18.34 -12.32 17.68 -13 17 C-12.01 16.67 -11.02 16.34 -10 16 C-9.67 14.35 -9.34 12.7 -9 11 C-8.34 11 -7.68 11 -7 11 C-7 9.68 -7 8.36 -7 7 C-7.66 6.67 -8.32 6.34 -9 6 C-8.67 4.68 -8.34 3.36 -8 2 C-7.34 2.33 -6.68 2.66 -6 3 C-5.67 2.34 -5.34 1.68 -5 1 C-4.01 1 -3.02 1 -2 1 C-1.34 0.67 -0.68 0.34 0 0 Z " fill="#DCD1F2" transform="translate(466,375)"/>
<path d="M0 0 C2.89568198 5.10949222 3.25985431 10.77081301 4.125 16.5 C4.39763672 18.18222656 4.39763672 18.18222656 4.67578125 19.8984375 C5.81601348 27.32280674 6.23012249 34.49289283 6 42 C5.67 42 5.34 42 5 42 C5 39.69 5 37.38 5 35 C4.34 35 3.68 35 3 35 C2.67 33.35 2.34 31.7 2 30 C2.66 30 3.32 30 4 30 C3.690625 29.113125 3.38125 28.22625 3.0625 27.3125 C1.68418972 22.58547811 1.52492666 17.78442709 1.24609375 12.890625 C1.10819201 9.93355471 1.10819201 9.93355471 0 7 C-0.03954234 4.66700175 -0.04401732 2.33291811 0 0 Z " fill="#696771" transform="translate(494,196)"/>
<path d="M0 0 C2.05078125 0.03255208 4.1015625 0.06510417 6.15234375 0.09765625 C7.27734375 3.84765625 7.27734375 3.84765625 6.15234375 6.09765625 C8.46234375 6.09765625 10.77234375 6.09765625 13.15234375 6.09765625 C13.48234375 7.08765625 13.81234375 8.07765625 14.15234375 9.09765625 C7.00210996 7.66760949 -0.09832345 5.90257378 -6.84765625 3.09765625 C-7.17765625 2.43765625 -7.50765625 1.77765625 -7.84765625 1.09765625 C-6.64109375 1.12859375 -6.64109375 1.12859375 -5.41015625 1.16015625 C-2.58661606 1.09128942 -2.56529606 0.13558647 0 0 Z " fill="#A9A3B9" transform="translate(163.84765625,480.90234375)"/>
<path d="M0 0 C-1.44902969 3.31419098 -3.2680214 5.56592592 -5.8125 8.125 C-6.81216797 9.14980469 -6.81216797 9.14980469 -7.83203125 10.1953125 C-10.13135285 12.10934237 -12.18134751 13.04569183 -15 14 C-13.67429457 8.93821563 -11.70494547 5.70494547 -8 2 C-5.18170151 0.7842634 -3.06188606 0 0 0 Z " fill="#E7DDF6" transform="translate(255,208)"/>
<path d="M0 0 C0 3 0 3 -2.125 5.375 C-4.09832108 7.17672794 -6.0421858 8.84416271 -8.125 10.5 C-11.61622384 13.53584682 -13.25749456 16.58248961 -15.375 20.625 C-17.24812175 23.36263948 -19.0761385 24.49855761 -22 26 C-22 25.01 -22 24.02 -22 23 C-21.34 23 -20.68 23 -20 23 C-19.67 21.68 -19.34 20.36 -19 19 C-18.34 19 -17.68 19 -17 19 C-16.67 17.68 -16.34 16.36 -16 15 C-15.34 15 -14.68 15 -14 15 C-13.76152344 14.43539062 -13.52304688 13.87078125 -13.27734375 13.2890625 C-11.72497876 10.50714848 -9.83368981 8.60516668 -7.5625 6.375 C-6.78003906 5.59898437 -5.99757812 4.82296875 -5.19140625 4.0234375 C-3 2 -3 2 0 0 Z M-23 26 C-23 29 -23 29 -23 29 Z " fill="#D9CFEF" transform="translate(240,157)"/>
<path d="M0 0 C0.33 0 0.66 0 1 0 C1.65387869 11.47920364 -0.29605205 22.68264357 -2 34 C-2.33 34 -2.66 34 -3 34 C-3.19601608 32.25093341 -3.38147403 30.50068154 -3.5625 28.75 C-3.66691406 27.77546875 -3.77132813 26.8009375 -3.87890625 25.796875 C-3.99167928 23.19218177 -3.68390773 21.4753377 -3 19 C-2.98180531 17.64579531 -3.00254051 16.29049898 -3.0625 14.9375 C-3 11 -3 11 -1 8 C-0.54860541 5.9507906 -0.54860541 5.9507906 -0.375 3.8125 C-0.25125 2.554375 -0.1275 1.29625 0 0 Z " fill="#74727D" transform="translate(499,262)"/>
<path d="M0 0 C-1.32 0.33 -2.64 0.66 -4 1 C-3.37679879 7.43974581 -2.35991738 13.67572401 -1 20 C-3.31 20 -5.62 20 -8 20 C-7.67 19.34 -7.34 18.68 -7 18 C-6.34 18 -5.68 18 -5 18 C-5.99 12.39 -6.98 6.78 -8 1 C-5.29120665 -0.35439668 -2.99066732 -0.06501451 0 0 Z " fill="#9E93D1" transform="translate(173,332)"/>
<path d="M0 0 C0.66 0.33 1.32 0.66 2 1 C1.39671875 1.73605469 0.7934375 2.47210938 0.171875 3.23046875 C-0.62734375 4.20628906 -1.4265625 5.18210938 -2.25 6.1875 C-3.03890625 7.15042969 -3.8278125 8.11335937 -4.640625 9.10546875 C-7.91582965 13.12355923 -11.15079868 17.15675278 -14.25 21.3125 C-14.77078125 22.00988281 -15.2915625 22.70726562 -15.828125 23.42578125 C-16.40820312 24.20501953 -16.40820312 24.20501953 -17 25 C-17.33 24.01 -17.66 23.02 -18 22 C-13.38075029 13.88254656 -6.58329759 6.58329759 0 0 Z " fill="#DBCBEF" transform="translate(288,131)"/>
<path d="M0 0 C0.66 0 1.32 0 2 0 C2.7047491 2.3501719 3.3887943 4.70341833 4.0625 7.0625 C4.26166016 7.71927734 4.46082031 8.37605469 4.66601562 9.05273438 C5.99155473 13.773514 5.99375663 17.19371794 5 22 C4.34 22 3.68 22 3 22 C2.67 19.36 2.34 16.72 2 14 C1.01 14 0.02 14 -1 14 C-0.814375 13.29875 -0.62875 12.5975 -0.4375 11.875 C0.05205626 8.65791599 -0.44588721 6.18614852 -1 3 C-0.67 2.01 -0.34 1.02 0 0 Z " fill="#B7AFE0" transform="translate(130,325)"/>
<path d="M0 0 C4.22797927 1.67357513 4.22797927 1.67357513 6 4 C6.55116813 8.37151981 6.34213687 12.61557936 6 17 C3.11261913 15.55630957 2.95547092 13.74330462 1.875 10.75 C1.52179688 9.79609375 1.16859375 8.8421875 0.8046875 7.859375 C0.02200646 5.0781977 -0.15707613 2.86925724 0 0 Z " fill="#F5F1FC" transform="translate(197,221)"/>
<path d="M0 0 C0.92751981 3.71007926 1.08209668 4.67161329 0.22265625 8.109375 C-0.05288086 9.24052734 -0.05288086 9.24052734 -0.33398438 10.39453125 C-0.53314453 11.17183594 -0.73230469 11.94914062 -0.9375 12.75 C-1.13279297 13.54277344 -1.32808594 14.33554687 -1.52929688 15.15234375 C-2.01124079 17.10362885 -2.50452088 19.05210783 -3 21 C-3.66 20.01 -4.32 19.02 -5 18 C-5.66 18.33 -6.32 18.66 -7 19 C-7 16.36 -7 13.72 -7 11 C-6.34 11 -5.68 11 -5 11 C-4.67 10.01 -4.34 9.02 -4 8 C-3.34 8 -2.68 8 -2 8 C-1.34 5.36 -0.68 2.72 0 0 Z M-5 14 C-5.33 14.66 -5.66 15.32 -6 16 C-5.34 16 -4.68 16 -4 16 C-4.33 15.34 -4.66 14.68 -5 14 Z " fill="#9C97AA" transform="translate(495,296)"/>
<path d="M0 0 C0.99 0.33 1.98 0.66 3 1 C1.34755775 4.30488449 -2.23968663 5.09901557 -5.5 6.5 C-6.58571289 6.97191772 -6.58571289 6.97191772 -7.69335938 7.45336914 C-12.74217722 9.59527474 -17.56754106 11.12692624 -23 12 C-22.34 10.68 -21.68 9.36 -21 8 C-18.03 8 -15.06 8 -12 8 C-11.67 7.01 -11.34 6.02 -11 5 C-8.8125 3.9375 -8.8125 3.9375 -6 3 C-4.3603125 2.443125 -4.3603125 2.443125 -2.6875 1.875 C-1.800625 1.58625 -0.91375 1.2975 0 1 C0 0.67 0 0.34 0 0 Z " fill="#8D879C" transform="translate(354,475)"/>
<path d="M0 0 C0.33 0 0.66 0 1 0 C1.24991456 6.65050424 0.73955334 12.56986533 -1 19 C-1.99 19 -2.98 19 -4 19 C-4.02715383 17.25008666 -4.04646551 15.50005055 -4.0625 13.75 C-4.07410156 12.77546875 -4.08570313 11.8009375 -4.09765625 10.796875 C-4.01195577 8.34241322 -3.70706066 6.33831086 -3 4 C-2.34 4 -1.68 4 -1 4 C-0.67 2.68 -0.34 1.36 0 0 Z " fill="#D6D0E6" transform="translate(495,286)"/>
<path d="M0 0 C0.33 0.66 0.66 1.32 1 2 C0.29617187 2.27972656 -0.40765625 2.55945313 -1.1328125 2.84765625 C-9.31092232 6.16801154 -17.15499916 9.9730543 -25 14 C-25.33 13.34 -25.66 12.68 -26 12 C-21.41078616 8.84345952 -17.70629354 6.42797202 -12 6 C-12 5.34 -12 4.68 -12 4 C-8.07561214 2.33510818 -4.10899581 1.12795963 0 0 Z " fill="#B1A8DF" transform="translate(175,366)"/>
<path d="M0 0 C7.26 0 14.52 0 22 0 C22 0.66 22 1.32 22 2 C18.04 2.99 14.08 3.98 10 5 C9.67 4.34 9.34 3.68 9 3 C9.33 2.34 9.66 1.68 10 1 C5.545 1.495 5.545 1.495 1 2 C0.67 1.34 0.34 0.68 0 0 Z " fill="#E4CCF6" transform="translate(383,105)"/>
<path d="M0 0 C0.36337162 3.27034459 0.28544288 4.60883753 -1.6875 7.3125 C-4.39116247 9.28544288 -5.72965541 9.36337162 -9 9 C-8.875 6.75 -8.875 6.75 -8 4 C-2.91891892 0 -2.91891892 0 0 0 Z " fill="#A49AE8" transform="translate(132,390)"/>
<path d="M0 0 C0.33 0.99 0.66 1.98 1 3 C0.01 4.485 0.01 4.485 -1 6 C-1.66 6 -2.32 6 -3 6 C-3.33 7.65 -3.66 9.3 -4 11 C-5.65 10.67 -7.3 10.34 -9 10 C-9 8.02 -9 6.04 -9 4 C-8.43410156 3.79503906 -7.86820313 3.59007812 -7.28515625 3.37890625 C-6.55167969 3.10949219 -5.81820312 2.84007812 -5.0625 2.5625 C-4.33160156 2.29566406 -3.60070312 2.02882813 -2.84765625 1.75390625 C-1.01694322 1.14613052 -1.01694322 1.14613052 0 0 Z " fill="#BBB0ED" transform="translate(146,343)"/>
<path d="M0 0 C2.31 0 4.62 0 7 0 C7 0.66 7 1.32 7 2 C7.66 1.67 8.32 1.34 9 1 C9.66 1.99 10.32 2.98 11 4 C11.66 3.67 12.32 3.34 13 3 C13.33 5.31 13.66 7.62 14 10 C10.19136032 8.65378455 7.34590149 6.94641263 4.1875 4.4375 C3.39730469 3.81746094 2.60710937 3.19742187 1.79296875 2.55859375 C0.90544922 1.78708984 0.90544922 1.78708984 0 1 C0 0.67 0 0.34 0 0 Z " fill="#B4ACC1" transform="translate(98,449)"/>
<path d="M0 0 C-9.19164488 4.00609301 -18.83348841 7.69317124 -29 7 C-28.38125 6.71125 -27.7625 6.4225 -27.125 6.125 C-24.86674235 5.06279958 -24.86674235 5.06279958 -23 3 C-21.329375 3.061875 -21.329375 3.061875 -19.625 3.125 C-14.55092828 3.30189424 -10.32687055 1.5609226 -5.63671875 -0.22265625 C-3 -1 -3 -1 0 0 Z " fill="#B7AAE0" transform="translate(254,289)"/>
<path d="M0 0 C2.38171031 3.80273074 2.65510945 7.89003197 3.125 12.25 C3.21136719 12.99507812 3.29773438 13.74015625 3.38671875 14.5078125 C3.59786867 16.33777846 3.79984545 18.16879879 4 20 C3.34 20.33 2.68 20.66 2 21 C1.34 20.67 0.68 20.34 0 20 C0 19.34 0 18.68 0 18 C-0.66 18 -1.32 18 -2 18 C-1.690625 16.9275 -1.38125 15.855 -1.0625 14.75 C-0.33187904 12.17133778 0.37482904 9.60487898 1 7 C0.34 6.67 -0.32 6.34 -1 6 C-0.67 4.02 -0.34 2.04 0 0 Z " fill="#E3DCF2" transform="translate(491,183)"/>
<path d="M0 0 C1.32 0.66 2.64 1.32 4 2 C3 5 3 5 1 7 C-1.625 7.125 -1.625 7.125 -4 7 C-4 7.66 -4 8.32 -4 9 C-5.98 9.66 -7.96 10.32 -10 11 C-7.40259936 6.57479891 -5.81309013 4.69108572 -1 3 C-0.67 2.01 -0.34 1.02 0 0 Z " fill="#D5D4DB" transform="translate(60,88)"/>
<path d="M0 0 C0.66 0.33 1.32 0.66 2 1 C-0.05994461 2.60754096 -2.12280476 4.2110805 -4.1875 5.8125 C-5.0547168 6.49022461 -5.0547168 6.49022461 -5.93945312 7.18164062 C-9.18252081 9.69181166 -12.42313088 11.97243389 -16 14 C-15.96484375 11.8046875 -15.96484375 11.8046875 -15 9 C-12.72898955 7.01600629 -10.18499779 5.59727946 -7.5625 4.125 C-6.86833984 3.70992187 -6.17417969 3.29484375 -5.45898438 2.8671875 C-3.68165928 1.83485927 -1.84379675 0.90829488 0 0 Z " fill="#EFDBFC" transform="translate(331,141)"/>
<path d="M0 0 C0.66 0.33 1.32 0.66 2 1 C1.21753906 1.66386719 0.43507813 2.32773438 -0.37109375 3.01171875 C-1.39376187 3.903035 -2.41586806 4.79499626 -3.4375 5.6875 C-3.95376953 6.12255859 -4.47003906 6.55761719 -5.00195312 7.00585938 C-8.18283484 9.81251971 -9.69917701 11.71905751 -10 16 C-10.99 16 -11.98 16 -13 16 C-13.33 16.66 -13.66 17.32 -14 18 C-16.0625 19.125 -16.0625 19.125 -18 20 C-14.4585151 11.86770134 -6.7747741 5.47747693 0 0 Z " fill="#F8EEFC" transform="translate(401,110)"/>
<path d="M0 0 C0 0.33 0 0.66 0 1 C-9.08785235 2.39049107 -17.78372955 3.30892527 -27 3 C-27 2.67 -27 2.34 -27 2 C-18.04395567 -0.46456257 -9.19822505 -0.1920743 0 0 Z " fill="#766F81" transform="translate(292,497)"/>
<path d="M0 0 C1.32 0.66 2.64 1.32 4 2 C3.40832031 2.32613281 2.81664062 2.65226562 2.20703125 2.98828125 C1.41683594 3.42527344 0.62664062 3.86226563 -0.1875 4.3125 C-1.00863281 4.76496094 -1.82976562 5.21742188 -2.67578125 5.68359375 C-4.4452041 6.68577106 -6.17169942 7.76415179 -7.875 8.875 C-8.57625 9.24625 -9.2775 9.6175 -10 10 C-10.99 9.67 -11.98 9.34 -13 9 C-12.3125 7.0625 -12.3125 7.0625 -11 5 C-7.70572419 3.90190806 -6.33588828 3.88803724 -3 5 C-2.67 4.01 -2.34 3.02 -2 2 C-1.34 2.33 -0.68 2.66 0 3 C0 2.01 0 1.02 0 0 Z " fill="#848090" transform="translate(371,466)"/>
<path d="M0 0 C0.33 0 0.66 0 1 0 C1.98248524 4.0527516 2.08159574 7.83861737 2 12 C-1.96 13.32 -5.92 14.64 -10 16 C-10 15.34 -10 14.68 -10 14 C-8.02 13.67 -6.04 13.34 -4 13 C-3.67 12.01 -3.34 11.02 -3 10 C-2.01 10 -1.02 10 0 10 C-0.08378906 9.36191406 -0.16757813 8.72382813 -0.25390625 8.06640625 C-0.35574219 7.24011719 -0.45757812 6.41382813 -0.5625 5.5625 C-0.66691406 4.73878906 -0.77132812 3.91507812 -0.87890625 3.06640625 C-0.91886719 2.38449219 -0.95882812 1.70257813 -1 1 C-0.67 0.67 -0.34 0.34 0 0 Z " fill="#B5AEDF" transform="translate(187,351)"/>
<path d="M0 0 C-3.27596159 3.13352847 -6.56230033 3.70833311 -10.87890625 4.47265625 C-13.28007496 4.94292277 -13.28007496 4.94292277 -16 7 C-18.1875 6.625 -18.1875 6.625 -20 6 C-6.52216749 -2.17405583 -6.52216749 -2.17405583 0 0 Z " fill="#DAC5EF" transform="translate(315,317)"/>
<path d="M0 0 C-0.66 1.65 -1.32 3.3 -2 5 C-3.32 5 -4.64 5 -6 5 C-6 4.01 -6 3.02 -6 2 C-10.29 1.67 -14.58 1.34 -19 1 C-19 0.67 -19 0.34 -19 0 C-16.77156512 -0.19600577 -14.54220107 -0.38146569 -12.3125 -0.5625 C-10.45044922 -0.71912109 -10.45044922 -0.71912109 -8.55078125 -0.87890625 C-5.44164467 -0.98493841 -2.99189028 -0.77228525 0 0 Z " fill="#C5B3ED" transform="translate(278,268)"/>
<path d="M0 0 C0 3 0 3 -2.0625 5.4375 C-5.26347337 8.22983847 -8.27836593 9.97001778 -12 12 C-13.35387289 12.97201131 -14.69855198 13.95884159 -16 15 C-16.66 14.67 -17.32 14.34 -18 14 C-12.13142165 9.12897384 -6.28303486 4.32831291 0 0 Z " fill="#DED3F1" transform="translate(259,142)"/>
<path d="M0 0 C0 0.33 0 0.66 0 1 C-1.175625 1.103125 -2.35125 1.20625 -3.5625 1.3125 C-7.82485903 1.82914958 -11.14087534 3.1508361 -15 5 C-15.33 4.34 -15.66 3.68 -16 3 C-19.96 3 -23.92 3 -28 3 C-28 2.67 -28 2.34 -28 2 C-18.57182803 0.53948097 -9.56470344 -0.29032827 0 0 Z " fill="#79777B" transform="translate(238,0)"/>
<path d="M0 0 C-1.3255581 3.62276315 -2.94346955 6.63505348 -5.125 9.8125 C-5.66382813 10.60269531 -6.20265625 11.39289063 -6.7578125 12.20703125 C-7.16773438 12.79871094 -7.57765625 13.39039063 -8 14 C-8.66 13.67 -9.32 13.34 -10 13 C-9.525625 12.13375 -9.05125 11.2675 -8.5625 10.375 C-7.06765105 7.14612626 -6.41781687 4.50966174 -6 1 C-3.92446352 0.4465236 -2.15634036 0 0 0 Z " fill="#D2B5EC" transform="translate(383,128)"/>
<path d="M0 0 C0.5775 0.495 1.155 0.99 1.75 1.5 C4.10400629 3.36980013 4.10400629 3.36980013 8 3 C7.95875 3.928125 7.9175 4.85625 7.875 5.8125 C7.72863661 9.15809719 7.72863661 9.15809719 10 12 C7.00779732 10.63629701 4.70973471 9.05091917 2.25 6.875 C1.63640625 6.33617187 1.0228125 5.79734375 0.390625 5.2421875 C-0.06828125 4.83226562 -0.5271875 4.42234375 -1 4 C-0.67 2.68 -0.34 1.36 0 0 Z " fill="#9B94A5" transform="translate(78,429)"/>
<path d="M0 0 C1.32 0.33 2.64 0.66 4 1 C2.7934375 2.11375 2.7934375 2.11375 1.5625 3.25 C-0.91605692 5.90991475 -1.29027524 6.6879511 -2 10 C-2.99 10.33 -3.98 10.66 -5 11 C-5 11.99 -5 12.98 -5 14 C-6.5 15.6875 -6.5 15.6875 -8 17 C-8.66 16.67 -9.32 16.34 -10 16 C-9.52949219 15.26394531 -9.05898437 14.52789062 -8.57421875 13.76953125 C-7.95160156 12.79371094 -7.32898438 11.81789063 -6.6875 10.8125 C-6.07261719 9.84957031 -5.45773438 8.88664062 -4.82421875 7.89453125 C-3.17876897 5.28365697 -1.57630335 2.6530398 0 0 Z " fill="#AFA7DB" transform="translate(152,349)"/>
<path d="M0 0 C0.66 0.33 1.32 0.66 2 1 C-9.21359223 10 -9.21359223 10 -16 10 C-15.34 9.67 -14.68 9.34 -14 9 C-14 8.34 -14 7.68 -14 7 C-11.71296692 5.80274117 -9.42115138 4.61702982 -7.125 3.4375 C-6.14853516 2.92413086 -6.14853516 2.92413086 -5.15234375 2.40039062 C-3.46470143 1.53917109 -1.73420407 0.76313297 0 0 Z " fill="#E2D1F1" transform="translate(310,118)"/>
<path d="M0 0 C0.99 0.33 1.98 0.66 3 1 C1.98679688 1.90492188 1.98679688 1.90492188 0.953125 2.828125 C-0.38492188 4.02695312 -0.38492188 4.02695312 -1.75 5.25 C-2.63171875 6.03890625 -3.5134375 6.8278125 -4.421875 7.640625 C-6.06301208 9.14251408 -7.6631765 10.69139677 -9.203125 12.296875 C-11 14 -11 14 -13 14 C-13 12 -13 12 -11.8125 10.6875 C-11.214375 10.130625 -10.61625 9.57375 -10 9 C-9.21625 8.195625 -8.4325 7.39125 -7.625 6.5625 C-5.16887455 4.16485373 -2.83413263 1.93914338 0 0 Z " fill="#C6B7EB" transform="translate(250,353)"/>
<path d="M0 0 C0.97453125 0.00451172 1.9490625 0.00902344 2.953125 0.01367188 C5.34381434 0.02539094 7.7343744 0.04179781 10.125 0.0625 C10.125 0.3925 10.125 0.7225 10.125 1.0625 C5.59775905 1.74585713 1.33004104 2.09772492 -3.25 2 C-8.66516806 1.93183705 -13.62687717 2.78746799 -18.875 4.0625 C-16.875 1.0625 -16.875 1.0625 -14.4296875 0.37890625 C-9.61081003 -0.0500268 -4.83497035 -0.04258443 0 0 Z " fill="#DCC7ED" transform="translate(333.875,313.9375)"/>
<path d="M0 0 C0.99 0 1.98 0 3 0 C1.83412722 4.9549593 -1.16143168 7.02717993 -5.02734375 9.9609375 C-5.67832031 10.30382812 -6.32929688 10.64671875 -7 11 C-7.99 10.67 -8.98 10.34 -10 10 C-9.0925 9.278125 -8.185 8.55625 -7.25 7.8125 C-5.06774282 6.01534703 -3.57904917 4.45877751 -1.8125 2.1875 C-1.214375 1.465625 -0.61625 0.74375 0 0 Z " fill="#C9AAF7" transform="translate(321,152)"/>
<path d="M0 0 C1.28908538 3.86725614 0.40610118 5.48244923 -0.875 9.3125 C-2.28116516 13.54574546 -3.37145544 17.58012812 -4 22 C-4.33 22 -4.66 22 -5 22 C-5.20674944 16.21101581 -4.59162079 11.57067277 -3 6 C-3.66 6 -4.32 6 -5 6 C-5 5.34 -5 4.68 -5 4 C-3.37373596 2.61767557 -1.7074998 1.28062485 0 0 Z " fill="#D5C6E8" transform="translate(265,138)"/>
<path d="M0 0 C1.32 0.66 2.64 1.32 4 2 C0.93906776 5.93548431 -1.49115974 8.68116787 -6 11 C-5.55530671 5.96014269 -3.28656638 3.62365012 0 0 Z " fill="#EBE1F7" transform="translate(263,195)"/>
<path d="M0 0 C0.99 0.33 1.98 0.66 3 1 C-8.56666667 11 -8.56666667 11 -11 11 C-11 10.01 -11 9.02 -11 8 C-10.34 8 -9.68 8 -9 8 C-9 7.34 -9 6.68 -9 6 C-7.35 5.67 -5.7 5.34 -4 5 C-3.67 4.01 -3.34 3.02 -3 2 C-2.01 2 -1.02 2 0 2 C0 1.34 0 0.68 0 0 Z " fill="#9F96A9" transform="translate(409,441)"/>
<path d="M0 0 C0.33 0 0.66 0 1 0 C1.33 2.97 1.66 5.94 2 9 C0.35 9.33 -1.3 9.66 -3 10 C-3.33 7.69 -3.66 5.38 -4 3 C-3.01 2.67 -2.02 2.34 -1 2 C-0.67 1.34 -0.34 0.68 0 0 Z " fill="#EEE9FA" transform="translate(140,337)"/>
<path d="M0 0 C1.49828872 3.88235819 0.43110582 6.43449288 -0.9375 10.25 C-1.31777344 11.32765625 -1.69804687 12.4053125 -2.08984375 13.515625 C-2.39019531 14.33546875 -2.69054687 15.1553125 -3 16 C-3.33 16 -3.66 16 -4 16 C-4 14.35 -4 12.7 -4 11 C-4.66 10.67 -5.32 10.34 -6 10 C-5.525625 9.4225 -5.05125 8.845 -4.5625 8.25 C-3.0515133 6.07417916 -2.45963849 4.57397552 -2 2 C-1.34 2 -0.68 2 0 2 C0 1.34 0 0.68 0 0 Z " fill="#8A8494" transform="translate(490,317)"/>
<path d="M0 0 C0.66 0 1.32 0 2 0 C2.25706972 5.91260345 1.2982126 11.23918159 0 17 C-2 15 -2 15 -2.01171875 12.03125 C-1.90472656 10.8659375 -1.79773438 9.700625 -1.6875 8.5 C-1.53861328 6.75203125 -1.53861328 6.75203125 -1.38671875 4.96875 C-1 2 -1 2 0 0 Z " fill="#A092D4" transform="translate(188,308)"/>
<path d="M0 0 C-1.24252679 0.84443568 -2.4943886 1.6751458 -3.75 2.5 C-4.44609375 2.9640625 -5.1421875 3.428125 -5.859375 3.90625 C-8 5 -8 5 -12 5 C-12 5.66 -12 6.32 -12 7 C-14.97 6.505 -14.97 6.505 -18 6 C-15.43461521 3.43461521 -12.93954104 2.62642121 -9.5625 1.3125 C-8.40878906 0.85488281 -7.25507813 0.39726562 -6.06640625 -0.07421875 C-3 -1 -3 -1 0 0 Z " fill="#CDC5EB" transform="translate(148,311)"/>
<path d="M0 0 C1.32 0.33 2.64 0.66 4 1 C2.90033225 2.29549899 1.79508199 3.58626071 0.6875 4.875 C0.07261719 5.59429687 -0.54226563 6.31359375 -1.17578125 7.0546875 C-3 9 -3 9 -6 11 C-6.33 10.01 -6.66 9.02 -7 8 C-5.71034824 6.62437146 -4.37310707 5.29233607 -3 4 C-2.34 4 -1.68 4 -1 4 C-0.67 2.68 -0.34 1.36 0 0 Z " fill="#A399B0" transform="translate(438,411)"/>
<path d="M0 0 C3.86038436 2.08906965 6.46552611 4.35798817 9.3125 7.6875 C10.00988281 8.49574219 10.70726562 9.30398437 11.42578125 10.13671875 C12.20501953 11.05904297 12.20501953 11.05904297 13 12 C11.10546875 12.57421875 11.10546875 12.57421875 9 13 C6.90798756 11.5278431 6.11395353 10.58875989 5.625 8.0625 C4.69909532 5.00701456 2.47157517 3.90121167 0 2 C0 1.34 0 0.68 0 0 Z " fill="#85848B" transform="translate(421,67)"/>
<path d="M0 0 C0.33 0.99 0.66 1.98 1 3 C4.465 2.505 4.465 2.505 8 2 C8.33 2.99 8.66 3.98 9 5 C2.50149789 4.48446121 -3.66226532 3.53332291 -10 2 C-10 1.67 -10 1.34 -10 1 C-6.7 0.67 -3.4 0.34 0 0 Z " fill="#817A8C" transform="translate(199,492)"/>
<path d="M0 0 C1.36125 0.37125 1.36125 0.37125 2.75 0.75 C0.49259377 3.08524782 -1.5305761 4.93705073 -4.25 6.75 C-5.24 6.75 -6.23 6.75 -7.25 6.75 C-7.25 3.75 -7.25 3.75 -5.625 1.5 C-3.25 -0.25 -3.25 -0.25 0 0 Z " fill="#9993A8" transform="translate(382.25,460.25)"/>
<path d="M0 0 C1.32 0 2.64 0 4 0 C4.66 2.64 5.32 5.28 6 8 C2.06326356 6.68775452 -0.22719294 5.08089673 -3 2 C-2.01 2 -1.02 2 0 2 C0 1.34 0 0.68 0 0 Z " fill="#A6A1B5" transform="translate(115,457)"/>
<path d="M0 0 C-2.60295276 1.31495542 -5.20728033 2.62704986 -7.8125 3.9375 C-8.55048828 4.31068359 -9.28847656 4.68386719 -10.04882812 5.06835938 C-10.76103516 5.42607422 -11.47324219 5.78378906 -12.20703125 6.15234375 C-12.8616333 6.48226318 -13.51623535 6.81218262 -14.19067383 7.15209961 C-16 8 -16 8 -19 9 C-18.3125 7.125 -18.3125 7.125 -17 5 C-15.35636866 4.27840576 -13.68949614 3.60648579 -12 3 C-11.67 2.34 -11.34 1.68 -11 1 C-9.2578125 0.33203125 -9.2578125 0.33203125 -7.125 -0.1875 C-6.07699219 -0.45626953 -6.07699219 -0.45626953 -5.0078125 -0.73046875 C-3 -1 -3 -1 0 0 Z " fill="#D4C2EA" transform="translate(310,329)"/>
<path d="M0 0 C1.99170912 2.98756368 3.02907979 5.55424386 4.1875 8.9375 C4.55230469 9.97777344 4.91710937 11.01804688 5.29296875 12.08984375 C5.98896034 14.95456052 6.02529944 16.28981357 5 19 C4.34 18.67 3.68 18.34 3 18 C2.59270772 15.67843403 2.25561323 13.3431213 2 11 C1.67 11 1.34 11 1 11 C0.67 7.37 0.34 3.74 0 0 Z " fill="#84828D" transform="translate(483,158)"/>
<path d="M0 0 C1.2065625 0.0309375 1.2065625 0.0309375 2.4375 0.0625 C2.4375 1.72916667 2.4375 3.39583333 2.4375 5.0625 C3.0975 5.3925 3.7575 5.7225 4.4375 6.0625 C-0.40909077 5.47145235 -4.16998167 4.08305843 -8.5625 2.0625 C-8.5625 1.7325 -8.5625 1.4025 -8.5625 1.0625 C-7.3559375 1.0934375 -7.3559375 1.0934375 -6.125 1.125 C-3.0866539 1.050894 -3.0383461 0.074106 0 0 Z " fill="#9B97A7" transform="translate(164.5625,480.9375)"/>
<path d="M0 0 C0.66 0 1.32 0 2 0 C1.41892368 3.7602985 0.34800504 6.53035032 -1.5625 9.8125 C-2.01753906 10.60269531 -2.47257812 11.39289063 -2.94140625 12.20703125 C-3.29074219 12.79871094 -3.64007813 13.39039063 -4 14 C-4.66 13.67 -5.32 13.34 -6 13 C-5.67 11.35 -5.34 9.7 -5 8 C-4.34 8 -3.68 8 -3 8 C-2.87625 7.236875 -2.7525 6.47375 -2.625 5.6875 C-2 3 -2 3 0 0 Z " fill="#948EA2" transform="translate(472,361)"/>
<path d="M0 0 C2.05078125 0.03255208 4.1015625 0.06510417 6.15234375 0.09765625 C5.82234375 0.75765625 5.49234375 1.41765625 5.15234375 2.09765625 C-0.75820435 3.81708842 -6.80626161 4.93394499 -12.84765625 6.09765625 C-11.84765625 4.09765625 -11.84765625 4.09765625 -9.81640625 3.28125 C-9.00171875 3.03503906 -8.18703125 2.78882813 -7.34765625 2.53515625 C-4.83601098 1.76815065 -2.43877896 0.12889952 0 0 Z " fill="#D9C7ED" transform="translate(322.84765625,321.90234375)"/>
<path d="M0 0 C0 0.66 0 1.32 0 2 C1.32 2.33 2.64 2.66 4 3 C-1.07476794 4.26305335 -5.72796354 5.27036084 -11 5 C-10.360625 4.896875 -9.72125 4.79375 -9.0625 4.6875 C-8.381875 4.460625 -7.70125 4.23375 -7 4 C-6.67 3.01 -6.34 2.02 -6 1 C-4 0 -4 0 0 0 Z " fill="#878195" transform="translate(303,492)"/>
<path d="M0 0 C0.99 0.33 1.98 0.66 3 1 C1.44298069 5.67105792 -1.08447373 9.08705685 -4 13 C-4.99 12.34 -5.98 11.68 -7 11 C-6.01 10.67 -5.02 10.34 -4 10 C-3.67 8.35 -3.34 6.7 -3 5 C-2.34 5 -1.68 5 -1 5 C-0.67 3.35 -0.34 1.7 0 0 Z " fill="#8C839A" transform="translate(460,381)"/>
<path d="M0 0 C0 0.66 0 1.32 0 2 C-4.76942989 3.3157048 -9.00793749 4.47543452 -14 4 C-14.66 3.34 -15.32 2.68 -16 2 C-14.27192682 1.66104344 -12.54248026 1.32908475 -10.8125 1 C-9.84957031 0.814375 -8.88664063 0.62875 -7.89453125 0.4375 C-5.2065794 0.03122388 -2.71228981 -0.07933572 0 0 Z " fill="#C6BFE9" transform="translate(150,320)"/>
<path d="M0 0 C-0.33 0.99 -0.66 1.98 -1 3 C-5.62 3 -10.24 3 -15 3 C-14.67 2.34 -14.34 1.68 -14 1 C-9.28474515 0.20080426 -4.78845757 -0.11971144 0 0 Z " fill="#BDB5E0" transform="translate(155,401)"/>
<path d="M0 0 C2.31 0.33 4.62 0.66 7 1 C7.33 2.65 7.66 4.3 8 6 C7.01 6.495 7.01 6.495 6 7 C5.67 7.66 5.34 8.32 5 9 C4.16094435 7.87926138 3.32892169 6.75325453 2.5 5.625 C2.0359375 4.99851562 1.571875 4.37203125 1.09375 3.7265625 C0 2 0 2 0 0 Z " fill="#A8A0B1" transform="translate(39,385)"/>
<path d="M0 0 C0.68359375 1.703125 0.68359375 1.703125 1 4 C-0.21484375 6.359375 -0.21484375 6.359375 -1.9375 8.75 C-2.50339844 9.54921875 -3.06929687 10.3484375 -3.65234375 11.171875 C-4.09707031 11.77515625 -4.54179687 12.3784375 -5 13 C-5.97608217 10.07175348 -6.08226668 8.04386724 -6 5 C-5.38125 4.731875 -4.7625 4.46375 -4.125 4.1875 C-1.7004767 3.04443152 -1.7004767 3.04443152 0 0 Z " fill="#BEB8E7" transform="translate(135,365)"/>
<path d="M0 0 C0.66 0.99 1.32 1.98 2 3 C1.01 4.485 1.01 4.485 0 6 C-0.66 6 -1.32 6 -2 6 C-2.33 6.99 -2.66 7.98 -3 9 C-3.99 8.01 -4.98 7.02 -6 6 C-4.75453595 2.26360784 -3.36595047 1.81243487 0 0 Z " fill="#B89CED" transform="translate(327,211)"/>
<path d="M0 0 C0.33 0.66 0.66 1.32 1 2 C-0.5625 4.0625 -0.5625 4.0625 -3 6 C-6.62457773 5.80923275 -9.56529291 5.14490236 -13 4 C-8.71 2.68 -4.42 1.36 0 0 Z " fill="#CDB8E6" transform="translate(341,195)"/>
<path d="M0 0 C0.33 0.66 0.66 1.32 1 2 C0.00390625 4.6015625 0.00390625 4.6015625 -1.4375 7.625 C-1.91058594 8.62789062 -2.38367187 9.63078125 -2.87109375 10.6640625 C-3.24363281 11.43492188 -3.61617187 12.20578125 -4 13 C-4.99 13 -5.98 13 -7 13 C-7 9.16235973 -5.73464665 7.88513915 -3.5 4.8125 C-2.8503125 3.91144531 -2.200625 3.01039062 -1.53125 2.08203125 C-1.0259375 1.39496094 -0.520625 0.70789063 0 0 Z " fill="#8E8D91" transform="translate(47,102)"/>
<path d="M0 0 C0.33 0.66 0.66 1.32 1 2 C-0.58671308 4.38006962 -1.87846958 6.14366088 -4 8 C-4.66 8 -5.32 8 -6 8 C-6 9.65 -6 11.3 -6 13 C-7.65 13.33 -9.3 13.66 -11 14 C-9.4722133 10.56247993 -7.49818944 7.81046312 -5 5 C-4.34 5 -3.68 5 -3 5 C-2.690625 4.360625 -2.38125 3.72125 -2.0625 3.0625 C-1 1 -1 1 0 0 Z " fill="#8A8A90" transform="translate(66,79)"/>
<path d="M0 0 C-3.63 0.99 -7.26 1.98 -11 3 C-11 3.66 -11 4.32 -11 5 C-15.455 5.495 -15.455 5.495 -20 6 C-18.59742285 3.19484571 -16.61889801 2.96825048 -13.77539062 1.99804688 C-12.74188477 1.65870117 -12.74188477 1.65870117 -11.6875 1.3125 C-10.67139648 0.95575195 -10.67139648 0.95575195 -9.63476562 0.59179688 C-5.75272313 -0.70221729 -4.07969537 -1.01992384 0 0 Z " fill="#717074" transform="translate(176,12)"/>
<path d="M0 0 C0.66 0 1.32 0 2 0 C1.34 1.65 0.68 3.3 0 5 C-0.99 5 -1.98 5 -3 5 C-3 5.66 -3 6.32 -3 7 C-3.66 7 -4.32 7 -5 7 C-5.33 7.99 -5.66 8.98 -6 10 C-6.66 10 -7.32 10 -8 10 C-8.33 9.01 -8.66 8.02 -9 7 C-8.01 7 -7.02 7 -6 7 C-6 6.01 -6 5.02 -6 4 C-5.38125 3.896875 -4.7625 3.79375 -4.125 3.6875 C-1.63473516 3.12474627 -1.63473516 3.12474627 0 0 Z " fill="#DDD2F6" transform="translate(426,421)"/>
<path d="M0 0 C0.66 0 1.32 0 2 0 C2 0.66 2 1.32 2 2 C3.32 1.67 4.64 1.34 6 1 C6.66 3.31 7.32 5.62 8 8 C8.66 8 9.32 8 10 8 C9.67 8.99 9.34 9.98 9 11 C5.74251349 7.83299923 2.72824638 4.63766184 0 1 C0 0.67 0 0.34 0 0 Z " fill="#8B8495" transform="translate(49,400)"/>
<path d="M0 0 C0.66 0.33 1.32 0.66 2 1 C0.44499019 4.81684226 -2.03595495 7.19195732 -5 10 C-5.66 8.68 -6.32 7.36 -7 6 C-2.25 3 -2.25 3 0 3 C0 2.01 0 1.02 0 0 Z " fill="#A098AF" transform="translate(450,397)"/>
<path d="M0 0 C0.515625 0.2475 1.03125 0.495 1.5625 0.75 C-0.9375 2.25 -0.9375 2.25 -3.4375 3.75 C-4.6440625 4.554375 -4.6440625 4.554375 -5.875 5.375 C-8.7509765 6.9182069 -11.21351411 7.37511792 -14.4375 7.75 C-4.73161765 -0.48529412 -4.73161765 -0.48529412 0 0 Z " fill="#BBAFE4" transform="translate(218.4375,377.25)"/>
<path d="M0 0 C-2.64738916 1.4606285 -3.89448334 2 -7 2 C-6.67 4.97 -6.34 7.94 -6 11 C-6.99 11.495 -6.99 11.495 -8 12 C-8.33 8.37 -8.66 4.74 -9 1 C-3.375 -1.25 -3.375 -1.25 0 0 Z " fill="#CFC9EB" transform="translate(130,318)"/>
<path d="M0 0 C0.33 0 0.66 0 1 0 C1.33 4.62 1.66 9.24 2 14 C1.34 14 0.68 14 0 14 C0 16.31 0 18.62 0 21 C-0.33 21 -0.66 21 -1 21 C-1.10808032 13.90272572 -0.93854006 7.03905044 0 0 Z " fill="#76747B" transform="translate(1,217)"/>
<path d="M0 0 C0.33 0 0.66 0 1 0 C1.33 3.63 1.66 7.26 2 11 C1.01 11 0.02 11 -1 11 C-1.91058531 7.92677456 -2.08886184 5.19902639 -2 2 C-1.34 2 -0.68 2 0 2 C0 1.34 0 0.68 0 0 Z " fill="#D7D1E5" transform="translate(482,156)"/>
<path d="M0 0 C0.33 0.66 0.66 1.32 1 2 C3.02463255 2.65213292 3.02463255 2.65213292 5 3 C5.144375 3.763125 5.28875 4.52625 5.4375 5.3125 C5.9632594 8.08172908 5.9632594 8.08172908 7 11 C6.34 11.66 5.68 12.32 5 13 C0 5.04545455 0 5.04545455 0 0 Z " fill="#918D99" transform="translate(18,344)"/>
<path d="M0 0 C0.33 0 0.66 0 1 0 C1.05389087 1.95803507 1.09274217 3.91648909 1.125 5.875 C1.14820313 6.96554687 1.17140625 8.05609375 1.1953125 9.1796875 C1 12 1 12 -1 14 C-1.64767793 16.57061311 -1.64767793 16.57061311 -2 19 C-2.33 19 -2.66 19 -3 19 C-3.25 11.375 -3.25 11.375 -1 8 C-0.54860541 5.9507906 -0.54860541 5.9507906 -0.375 3.8125 C-0.25125 2.554375 -0.1275 1.29625 0 0 Z " fill="#9995A8" transform="translate(499,262)"/>
<path d="M0 0 C3.09592835 3.5087188 4.74194623 6.49197399 6 11 C5.01 11 4.02 11 3 11 C3 10.01 3 9.02 3 8 C1.68 7.34 0.36 6.68 -1 6 C-0.67 4.02 -0.34 2.04 0 0 Z " fill="#918F99" transform="translate(465,121)"/>
<path d="M0 0 C1.43088528 2.86177057 0.59991697 4.93375773 0 8 C-0.66 8 -1.32 8 -2 8 C-2 8.66 -2 9.32 -2 10 C-2.66 10 -3.32 10 -4 10 C-4 10.66 -4 11.32 -4 12 C-4.66 12 -5.32 12 -6 12 C-4.43358249 7.69235185 -2.31663844 3.93828536 0 0 Z " fill="#89888C" transform="translate(36,118)"/>
<path d="M0 0 C3.39417765 3.12621626 5.6062718 5.56541027 7 10 C5.02 9.34 3.04 8.68 1 8 C1.66 7.67 2.32 7.34 3 7 C2.01 6.67 1.02 6.34 0 6 C0 4.02 0 2.04 0 0 Z " fill="#96939F" transform="translate(452,102)"/>
<path d="M0 0 C0.89203125 0.00902344 1.7840625 0.01804687 2.703125 0.02734375 C3.37859375 0.03894531 4.0540625 0.05054687 4.75 0.0625 C2.58956057 2.22293943 1.65961761 2.5169467 -1.25 3.0625 C-4.25 3.0625 -7.25 3.0625 -10.25 3.0625 C-9.25 1.0625 -9.25 1.0625 -7.515625 0.44140625 C-4.96855716 0.01543111 -2.58143831 -0.03396629 0 0 Z " fill="#E6D3F3" transform="translate(378.25,103.9375)"/>
<path d="M0 0 C0.66 0.33 1.32 0.66 2 1 C-1.01268499 7.50739958 -1.01268499 7.50739958 -3.82421875 8.91015625 C-5.75 9.4375 -5.75 9.4375 -9 10 C-7.38405168 7.95880212 -5.7143618 5.95927063 -4 4 C-3.34 4 -2.68 4 -2 4 C-1.34 2.68 -0.68 1.36 0 0 Z " fill="#918F95" transform="translate(86,59)"/>
<path d="M0 0 C3.59391114 1.33488128 6.75490696 2.96022723 10 5 C9.01 5.495 9.01 5.495 8 6 C7.01 5.67 6.02 5.34 5 5 C4.67 5.66 4.34 6.32 4 7 C3.67 6.01 3.34 5.02 3 4 C2.01 4 1.02 4 0 4 C0 2.68 0 1.36 0 0 Z " fill="#918F95" transform="translate(369,29)"/>
<path d="M0 0 C1.258125 0.12375 2.51625 0.2475 3.8125 0.375 C4.87404297 0.47941406 4.87404297 0.47941406 5.95703125 0.5859375 C8 1 8 1 11 3 C8.03 3.66 5.06 4.32 2 5 C1.34 3.35 0.68 1.7 0 0 Z " fill="#A9A5AD" transform="translate(317,9)"/>
<path d="M0 0 C1.258125 0.226875 2.51625 0.45375 3.8125 0.6875 C-0.02454776 3.24553184 -3.94462791 5.03255724 -8.625 4.3125 C-9.140625 4.10625 -9.65625 3.9 -10.1875 3.6875 C-9.1975 3.3575 -8.2075 3.0275 -7.1875 2.6875 C-6.5996875 1.883125 -6.5996875 1.883125 -6 1.0625 C-3.68650611 -0.69256433 -2.81965303 -0.36238498 0 0 Z " fill="#726C7D" transform="translate(318.1875,489.3125)"/>
<path d="M0 0 C1.2065625 0.0309375 1.2065625 0.0309375 2.4375 0.0625 C1.14450306 2.94687779 -0.22191363 4.93469421 -2.5625 7.0625 C-3.5525 6.7325 -4.5425 6.4025 -5.5625 6.0625 C-4.5725 5.7325 -3.5825 5.4025 -2.5625 5.0625 C-2.8409375 4.1034375 -2.8409375 4.1034375 -3.125 3.125 C-3.269375 2.444375 -3.41375 1.76375 -3.5625 1.0625 C-2.5625 0.0625 -2.5625 0.0625 0 0 Z " fill="#9993A9" transform="translate(416.5625,433.9375)"/>
<path d="M0 0 C0.66 0 1.32 0 2 0 C1.3203125 1.890625 1.3203125 1.890625 0 4 C-2.3828125 5.046875 -2.3828125 5.046875 -5.125 5.75 C-6.03507813 5.99234375 -6.94515625 6.2346875 -7.8828125 6.484375 C-8.93082031 6.73960937 -8.93082031 6.73960937 -10 7 C-9.22265625 5.07421875 -9.22265625 5.07421875 -8 3 C-4.4375 1.8125 -4.4375 1.8125 -1 1 C-0.67 0.67 -0.34 0.34 0 0 Z " fill="#B8ADEF" transform="translate(152,328)"/>
<path d="M0 0 C0.33 0 0.66 0 1 0 C1.04898438 0.59167969 1.09796875 1.18335938 1.1484375 1.79296875 C1.49173392 5.42125682 1.78677553 8.48377233 3.1875 11.875 C3.455625 12.57625 3.72375 13.2775 4 14 C3.01 15.485 3.01 15.485 2 17 C-0.25998595 13.40537669 -0.20868087 10.43404325 -0.125 6.25 C-0.09792969 4.49429687 -0.09792969 4.49429687 -0.0703125 2.703125 C-0.04710937 1.81109375 -0.02390625 0.9190625 0 0 Z " fill="#93929B" transform="translate(0,261)"/>
<path d="M0 0 C4.2742558 1.5830577 6.26531794 4.50568404 9 8 C7.35 8.33 5.7 8.66 4 9 C4.33 7.68 4.66 6.36 5 5 C3.68 5 2.36 5 1 5 C0.67 3.35 0.34 1.7 0 0 Z " fill="#95949C" transform="translate(412,59)"/>
<path d="M0 0 C2.625 -0.1875 2.625 -0.1875 5 0 C4.21625 0.886875 3.4325 1.77375 2.625 2.6875 C0.42843009 5.30720519 -0.93790341 7.71715601 -2 11 C-2.33 11 -2.66 11 -3 11 C-2.25 3.375 -2.25 3.375 0 0 Z " fill="#A99CDA" transform="translate(193,301)"/>
<path d="M0 0 C-6.11980533 1.40454548 -11.71739294 2.23268915 -18 2 C-18 1.67 -18 1.34 -18 1 C-15.56510233 0.44293854 -13.12850409 -0.0960037 -10.6875 -0.625 C-9.65206055 -0.86476563 -9.65206055 -0.86476563 -8.59570312 -1.109375 C-3.33984375 -2.2265625 -3.33984375 -2.2265625 0 0 Z " fill="#BBADE3" transform="translate(258,260)"/>
<path d="M0 0 C0.33 0 0.66 0 1 0 C0.67 2.97 0.34 5.94 0 9 C0.66 9 1.32 9 2 9 C1.67 10.32 1.34 11.64 1 13 C0.34 13 -0.32 13 -1 13 C-1.33 13.99 -1.66 14.98 -2 16 C-1.85764543 14.27054347 -1.71095618 12.54144346 -1.5625 10.8125 C-1.48128906 9.84957031 -1.40007812 8.88664063 -1.31640625 7.89453125 C-1.02333849 5.21350398 -0.57296246 2.6337014 0 0 Z " fill="#716F76" transform="translate(4,200)"/>
<path d="M0 0 C0.99 1.32 1.98 2.64 3 4 C2.649375 4.61875 2.29875 5.2375 1.9375 5.875 C1.4734375 6.926875 1.4734375 6.926875 1 8 C1.33 8.66 1.66 9.32 2 10 C1.01 10.33 0.02 10.66 -1 11 C-1.66 11.99 -2.32 12.98 -3 14 C-2.40380045 9.13103697 -1.43023178 4.67209049 0 0 Z " fill="#908F95" transform="translate(14,163)"/>
<path d="M0 0 C0.66 0 1.32 0 2 0 C3.0625 1.875 3.0625 1.875 4 4 C3.67 4.66 3.34 5.32 3 6 C1.35 6 -0.3 6 -2 6 C-1.125 1.125 -1.125 1.125 0 0 Z " fill="#DCD1F2" transform="translate(172,481)"/>
<path d="M0 0 C0.66 0.33 1.32 0.66 2 1 C2 4.96 2 8.92 2 13 C1.67 13 1.34 13 1 13 C1 10.69 1 8.38 1 6 C0.34 6 -0.32 6 -1 6 C-1.33 4.35 -1.66 2.7 -2 1 C-1.34 0.67 -0.68 0.34 0 0 Z " fill="#8F8998" transform="translate(498,225)"/>
<path d="M0 0 C0.99 0 1.98 0 3 0 C1.63629701 2.99220268 0.05091917 5.29026529 -2.125 7.75 C-2.93324219 8.67039062 -2.93324219 8.67039062 -3.7578125 9.609375 C-4.16773438 10.06828125 -4.57765625 10.5271875 -5 11 C-5.33 10.34 -5.66 9.68 -6 9 C-3.59016393 4.29508197 -3.59016393 4.29508197 -1 3 C-0.67 2.01 -0.34 1.02 0 0 Z " fill="#D1BBEB" transform="translate(389,117)"/>
<path d="M0 0 C0.33 2.97 0.66 5.94 1 9 C-3.875 5.375 -3.875 5.375 -5 2 C-1.125 0 -1.125 0 0 0 Z " fill="#9D97A4" transform="translate(63,409)"/>
<path d="M0 0 C1.625 1.6875 1.625 1.6875 3 4 C2.375 6.6875 2.375 6.6875 1 9 C0.01 9.33 -0.98 9.66 -2 10 C-1.85950482 8.52031676 -1.71245174 7.04125484 -1.5625 5.5625 C-1.48128906 4.73878906 -1.40007812 3.91507812 -1.31640625 3.06640625 C-1 1 -1 1 0 0 Z " fill="#B8AFED" transform="translate(120,381)"/>
<path d="M0 0 C0.99 0.33 1.98 0.66 3 1 C2.01 4.3 1.02 7.6 0 11 C-0.66 11 -1.32 11 -2 11 C-1.34 7.37 -0.68 3.74 0 0 Z " fill="#C4BAF6" transform="translate(138,352)"/>
<path d="M0 0 C0.66 0.33 1.32 0.66 2 1 C-0.97 4.96 -0.97 4.96 -4 9 C-5.32 8.34 -6.64 7.68 -8 7 C-5.36 4.69 -2.72 2.38 0 0 Z " fill="#969598" transform="translate(100,48)"/>
<path d="M0 0 C-0.33 1.32 -0.66 2.64 -1 4 C-1.99 4 -2.98 4 -4 4 C-4 4.66 -4 5.32 -4 6 C-5.98 6 -7.96 6 -10 6 C-7.35570758 3.077361 -4.105808 0 0 0 Z " fill="#868589" transform="translate(128,31)"/>
<path d="M0 0 C-1.08203125 1.48828125 -1.08203125 1.48828125 -3 3 C-6.13671875 3.29296875 -6.13671875 3.29296875 -9.6875 3.1875 C-11.45673828 3.14689453 -11.45673828 3.14689453 -13.26171875 3.10546875 C-14.16535156 3.07066406 -15.06898438 3.03585937 -16 3 C-16 2.67 -16 2.34 -16 2 C-10.61972975 0.80911014 -5.54708616 -0.2919519 0 0 Z " fill="#7A797E" transform="translate(210,3)"/>
<path d="M0 0 C2.9375 0.8125 2.9375 0.8125 6 2 C6.33 2.99 6.66 3.98 7 5 C5.68 5 4.36 5 3 5 C3 4.34 3 3.68 3 3 C1.35 2.67 -0.3 2.34 -2 2 C-1.34 1.34 -0.68 0.68 0 0 Z " fill="#9D9AA9" transform="translate(136,471)"/>
<path d="M0 0 C0.66 0.33 1.32 0.66 2 1 C0.68 3.64 -0.64 6.28 -2 9 C-0.68 9.33 0.64 9.66 2 10 C0.35 10 -1.3 10 -3 10 C-3.97140086 6.97786398 -4.19248372 4.9812093 -3 2 C-2.01 1.34 -1.02 0.68 0 0 Z " fill="#E1DCFA" transform="translate(125,390)"/>
<path d="M0 0 C0 3 0 3 -2.3125 5.6875 C-5 8 -5 8 -8 8 C-6.88333826 4.65001479 -6.25305075 4.20659778 -3.4375 2.3125 C-2.79683594 1.87550781 -2.15617188 1.43851562 -1.49609375 0.98828125 C-1.00238281 0.66214844 -0.50867188 0.33601563 0 0 Z " fill="#F2EBFD" transform="translate(256,364)"/>
<path d="M0 0 C0.99 0.33 1.98 0.66 3 1 C3.33 2.65 3.66 4.3 4 6 C3.01 6.66 2.02 7.32 1 8 C0.87625 7.360625 0.7525 6.72125 0.625 6.0625 C0.315625 5.0415625 0.315625 5.0415625 0 4 C-0.66 3.67 -1.32 3.34 -2 3 C-1.34 3 -0.68 3 0 3 C0 2.01 0 1.02 0 0 Z " fill="#A79CE0" transform="translate(178,353)"/>
<path d="M0 0 C0.33 0.66 0.66 1.32 1 2 C1.66 2 2.32 2 3 2 C4.7578125 7.95703125 4.7578125 7.95703125 5 10 C4.01 11.485 4.01 11.485 3 13 C2.49487756 11.39743892 1.99608373 9.79288208 1.5 8.1875 C1.2215625 7.29417969 0.943125 6.40085937 0.65625 5.48046875 C0 3 0 3 0 0 Z " fill="#84818A" transform="translate(9,317)"/>
<path d="M0 0 C0.33 0 0.66 0 1 0 C1 2.64 1 5.28 1 8 C0.01 8 -0.98 8 -2 8 C-2.33 8.99 -2.66 9.98 -3 11 C-4.04449911 7.86650268 -3.93423645 7.01031744 -3 4 C-2.34 4 -1.68 4 -1 4 C-0.67 2.68 -0.34 1.36 0 0 Z " fill="#DED3EF" transform="translate(495,286)"/>
<path d="M0 0 C0.66 0 1.32 0 2 0 C1.40312566 3.34249629 0.26396123 5.46436342 -2 8 C-2.66 8 -3.32 8 -4 8 C-3.67 6.35 -3.34 4.7 -3 3 C-2.01 2.67 -1.02 2.34 0 2 C0 1.34 0 0.68 0 0 Z " fill="#DDD4FC" transform="translate(213,253)"/>
<path d="M0 0 C-3.85477249 2.56984833 -7.52040582 3.85814266 -12 5 C-12.33 4.34 -12.66 3.68 -13 3 C-11.5903653 2.29819469 -10.17192359 1.61406042 -8.75 0.9375 C-7.96109375 0.55464844 -7.1721875 0.17179688 -6.359375 -0.22265625 C-3.74006478 -1.08564091 -2.55144824 -0.93045933 0 0 Z " fill="#F5EFFC" transform="translate(290,252)"/>
<path d="M0 0 C1.10914742 3.32744227 1.03211839 5.64561525 0 9 C-1.5625 10.8125 -1.5625 10.8125 -3 12 C-2.49202991 7.6822542 -1.80317221 3.96697886 0 0 Z " fill="#C8BFEA" transform="translate(180,224)"/>
<path d="M0 0 C1.67110042 2.96178773 2.32682752 5.37071192 2.625 8.75 C2.69976562 9.54921875 2.77453125 10.3484375 2.8515625 11.171875 C2.90054687 11.77515625 2.94953125 12.3784375 3 13 C2.34 13 1.68 13 1 13 C0 10 0 10 1 7 C0.34 6.67 -0.32 6.34 -1 6 C-0.67 4.02 -0.34 2.04 0 0 Z " fill="#918D99" transform="translate(491,183)"/>
<path d="M0 0 C3.3 0 6.6 0 10 0 C7.14521674 1.90318884 5.58058692 2.4619099 2.3125 3.125 C1.50425781 3.29257812 0.69601562 3.46015625 -0.13671875 3.6328125 C-0.75160156 3.75398438 -1.36648438 3.87515625 -2 4 C-1.34 2.68 -0.68 1.36 0 0 Z " fill="#74707F" transform="translate(333,483)"/>
<path d="M0 0 C1.65 0 3.3 0 5 0 C2.22719294 3.08089673 -0.06326356 4.68775452 -4 6 C-4 5.01 -4 4.02 -4 3 C-2.68 3 -1.36 3 0 3 C0 2.01 0 1.02 0 0 Z " fill="#7B778A" transform="translate(389,455)"/>
<path d="M0 0 C0.33 0.99 0.66 1.98 1 3 C0.01 3.33 -0.98 3.66 -2 4 C-2.33 4.66 -2.66 5.32 -3 6 C-4.32 6 -5.64 6 -7 6 C-7 5.01 -7 4.02 -7 3 C-4.69 2.01 -2.38 1.02 0 0 Z " fill="#DDD1F3" transform="translate(408,440)"/>
<path d="M0 0 C0.95465783 2.16967689 1.14401212 3.56328793 0.3984375 5.82421875 C-0.35870385 7.5684743 -1.17609198 9.28627131 -2 11 C-2.66 10.67 -3.32 10.34 -4 10 C-3.67 7.69 -3.34 5.38 -3 3 C-2.01 3 -1.02 3 0 3 C0 2.01 0 1.02 0 0 Z " fill="#87808E" transform="translate(485,333)"/>
<path d="M0 0 C-8.261959 5.74031891 -8.261959 5.74031891 -13 5 C-4.82022472 -1.60674157 -4.82022472 -1.60674157 0 0 Z " fill="#D4C4EC" transform="translate(295,325)"/>
<path d="M0 0 C0.66 0.33 1.32 0.66 2 1 C2 1.33 2 1.66 2 2 C4.64 2.33 7.28 2.66 10 3 C10 3.33 10 3.66 10 4 C6.04 4 2.08 4 -2 4 C-2.33 3.34 -2.66 2.68 -3 2 C-2.01 1.34 -1.02 0.68 0 0 Z " fill="#B4AAE4" transform="translate(156,400)"/>
<path d="M0 0 C2.97 0 5.94 0 9 0 C9 0.66 9 1.32 9 2 C4.545 2.495 4.545 2.495 0 3 C0 2.01 0 1.02 0 0 Z " fill="#A99DE8" transform="translate(158,400)"/>
<path d="M0 0 C0.33 0 0.66 0 1 0 C1 1.98 1 3.96 1 6 C0.01 6 -0.98 6 -2 6 C-2.33 6.99 -2.66 7.98 -3 9 C-3.66 8.67 -4.32 8.34 -5 8 C-4.19185349 6.66402348 -3.37836819 5.331275 -2.5625 4 C-2.11003906 3.2575 -1.65757812 2.515 -1.19140625 1.75 C-0.79824219 1.1725 -0.40507812 0.595 0 0 Z " fill="#AFA6DD" transform="translate(131,383)"/>
<path d="M0 0 C3 1 3 1 4.6875 4.0625 C5.120625 5.031875 5.55375 6.00125 6 7 C5.34 7.66 4.68 8.32 4 9 C0 2.25 0 2.25 0 0 Z " fill="#837E8A" transform="translate(28,366)"/>
<path d="M0 0 C0.99 0 1.98 0 3 0 C3 1.32 3 2.64 3 4 C2.34 4 1.68 4 1 4 C1 5.32 1 6.64 1 8 C0.34 8 -0.32 8 -1 8 C-1.33 6.35 -1.66 4.7 -2 3 C-1.34 2.67 -0.68 2.34 0 2 C0 1.34 0 0.68 0 0 Z " fill="#928D9E" transform="translate(475,353)"/>
<path d="M0 0 C1.32 1.32 2.64 2.64 4 4 C3.34 6.31 2.68 8.62 2 11 C1.67 11 1.34 11 1 11 C0.67 7.37 0.34 3.74 0 0 Z " fill="#908B95" transform="translate(4,294)"/>
<path d="M0 0 C0.99 0.99 1.98 1.98 3 3 C-0.31114834 4.12880057 -3.58978257 5.21302675 -7 6 C-4.9859524 2.9789286 -3.36720387 1.39332574 0 0 Z " fill="#F6F0FB" transform="translate(317,231)"/>
<path d="M0 0 C1.2065625 0.0309375 1.2065625 0.0309375 2.4375 0.0625 C2.125 1.9375 2.125 1.9375 1.4375 4.0625 C0.4475 4.7225 -0.5425 5.3825 -1.5625 6.0625 C-2.2225 4.4125 -2.8825 2.7625 -3.5625 1.0625 C-2.5625 0.0625 -2.5625 0.0625 0 0 Z " fill="#E5DCF9" transform="translate(235.5625,224.9375)"/>
<path d="M0 0 C0.66 0.33 1.32 0.66 2 1 C-1.32307692 4.93846154 -1.32307692 4.93846154 -4.75 5.25 C-5.4925 5.1675 -6.235 5.085 -7 5 C-7 4.01 -7 3.02 -7 2 C-4.03 2.495 -4.03 2.495 -1 3 C-0.67 2.01 -0.34 1.02 0 0 Z " fill="#F3EFFB" transform="translate(197,384)"/>
<path d="M0 0 C0.99 0 1.98 0 3 0 C2.39816251 2.02045442 1.72693904 4.02111039 1 6 C0.01 6.495 0.01 6.495 -1 7 C-1.625 5.1875 -1.625 5.1875 -2 3 C-1.34 2.01 -0.68 1.02 0 0 Z " fill="#C6C0E9" transform="translate(126,378)"/>
<path d="M0 0 C-0.99 1.485 -0.99 1.485 -2 3 C-5.125 3.1875 -5.125 3.1875 -8 3 C-8.33 2.34 -8.66 1.68 -9 1 C-5.8035914 -0.06546953 -3.34252724 -0.07427838 0 0 Z " fill="#ACA3D9" transform="translate(152,328)"/>
<path d="M0 0 C0.99 0.33 1.98 0.66 3 1 C0.03 3.475 0.03 3.475 -3 6 C-3.66 5.67 -4.32 5.34 -5 5 C-3.35 3.35 -1.7 1.7 0 0 Z " fill="#C4A8F7" transform="translate(302,170)"/>
<path d="M0 0 C-2.97 0.66 -5.94 1.32 -9 2 C-8.67 1.01 -8.34 0.02 -8 -1 C-4.40321889 -2.61235015 -3.79177789 -1.89588895 0 0 Z " fill="#7F798D" transform="translate(331,488)"/>
<path d="M0 0 C0.33 1.65 0.66 3.3 1 5 C-1.02045442 4.39816251 -3.02111039 3.72693904 -5 3 C-5.33 2.34 -5.66 1.68 -6 1 C-4 0 -4 0 0 0 Z " fill="#847F90" transform="translate(127,464)"/>
<path d="M0 0 C2.31 0 4.62 0 7 0 C6.67 0.99 6.34 1.98 6 3 C6.99 4.485 6.99 4.485 8 6 C4.63408134 4.55746343 2.48952921 2.66735273 0 0 Z " fill="#8A8493" transform="translate(98,449)"/>
<path d="M0 0 C0.103125 0.639375 0.20625 1.27875 0.3125 1.9375 C0.539375 2.618125 0.76625 3.29875 1 4 C1.99 4.33 2.98 4.66 4 5 C3 6 3 6 0.4375 6.0625 C-0.7690625 6.0315625 -0.7690625 6.0315625 -2 6 C-1.125 1.125 -1.125 1.125 0 0 Z " fill="#A49CD6" transform="translate(125,393)"/>
<path d="M0 0 C2.64 0 5.28 0 8 0 C6.875 1.5625 6.875 1.5625 5 3 C1.8125 2.6875 1.8125 2.6875 -1 2 C-0.67 1.34 -0.34 0.68 0 0 Z " fill="#978CCE" transform="translate(170,357)"/>
<path d="M0 0 C0.99 0.33 1.98 0.66 3 1 C2.34 1 1.68 1 1 1 C1.33 1.66 1.66 2.32 2 3 C2.039992 4.99960012 2.04346799 7.00047242 2 9 C1.34 9 0.68 9 0 9 C-1.125 2.25 -1.125 2.25 0 0 Z " fill="#9B90D8" transform="translate(157,339)"/>
<path d="M0 0 C0.99 0.33 1.98 0.66 3 1 C1.00045871 3.99931194 0.26204729 4.81380099 -3 6 C-3.99 5.67 -4.98 5.34 -6 5 C-2.25 2 -2.25 2 0 2 C0 1.34 0 0.68 0 0 Z " fill="#D1C0EA" transform="translate(280,330)"/>
<path d="M0 0 C0.99 0.66 1.98 1.32 3 2 C3.375 4.5 3.375 4.5 3 7 C2.01 7.66 1.02 8.32 0 9 C-0.66 8.34 -1.32 7.68 -2 7 C-1.34 6.67 -0.68 6.34 0 6 C0 4.02 0 2.04 0 0 Z " fill="#C8C2EA" transform="translate(154,320)"/>
<path d="M0 0 C0.66 0 1.32 0 2 0 C2.33 1.65 2.66 3.3 3 5 C2.01 5.66 1.02 6.32 0 7 C-0.38133299 5.0085944 -0.71325582 3.00720923 -1 1 C-0.67 0.67 -0.34 0.34 0 0 Z " fill="#DBD3F9" transform="translate(194,275)"/>
<path d="M0 0 C0.66 0 1.32 0 2 0 C1.4409112 3.24271506 0.5867822 4.93057424 -2 7 C-2.66 7 -3.32 7 -4 7 C-3.01595171 4.04785514 -2.01178391 2.33366933 0 0 Z " fill="#E0D7FB" transform="translate(226,237)"/>
<path d="M0 0 C0.66 0.33 1.32 0.66 2 1 C2 2.98 2 4.96 2 7 C1.01 7 0.02 7 -1 7 C-0.67 4.69 -0.34 2.38 0 0 Z " fill="#CEC0E2" transform="translate(430,416)"/>
<path d="M0 0 C2.0625 0.4375 2.0625 0.4375 4 1 C2.35 2.65 0.7 4.3 -1 6 C-1.042721 4.33388095 -1.04063832 2.66617115 -1 1 C-0.67 0.67 -0.34 0.34 0 0 Z " fill="#8D8699" transform="translate(438,411)"/>
<path d="M0 0 C1.32 0.33 2.64 0.66 4 1 C4.33 3.31 4.66 5.62 5 8 C2.20127563 5.47211993 0.54226981 3.79588866 0 0 Z " fill="#7C7884" transform="translate(34,377)"/>
<path d="M0 0 C0.66 0 1.32 0 2 0 C1.67 2.31 1.34 4.62 1 7 C0.34 6.34 -0.32 5.68 -1 5 C-1.33 5.66 -1.66 6.32 -2 7 C-2.66 6.67 -3.32 6.34 -4 6 C-2.7260411 3.96166576 -1.38938077 1.96147874 0 0 Z " fill="#D1CBE6" transform="translate(196,196)"/>
<path d="M0 0 C0.66 0.33 1.32 0.66 2 1 C0.71186658 1.83878455 -0.58063256 2.67086783 -1.875 3.5 C-2.59429687 3.9640625 -3.31359375 4.428125 -4.0546875 4.90625 C-6 6 -6 6 -8 6 C-7 3 -7 3 -3.5625 1.25 C-2.386875 0.8375 -1.21125 0.425 0 0 Z " fill="#DDC9F1" transform="translate(327,142)"/>
<path d="M0 0 C0.99 0.33 1.98 0.66 3 1 C0.03 3.475 0.03 3.475 -3 6 C-3.33 5.01 -3.66 4.02 -4 3 C-2.68 2.67 -1.36 2.34 0 2 C0 1.34 0 0.68 0 0 Z " fill="#797283" transform="translate(409,441)"/>
<path d="M0 0 C0.33 0.99 0.66 1.98 1 3 C-0.32 4.32 -1.64 5.64 -3 7 C-3.33 6.01 -3.66 5.02 -4 4 C-2.68 2.68 -1.36 1.36 0 0 Z " fill="#736E7D" transform="translate(466,375)"/>
<path d="M0 0 C1.98 0.495 1.98 0.495 4 1 C3.67 1.99 3.34 2.98 3 4 C1.68 4 0.36 4 -1 4 C-0.67 2.68 -0.34 1.36 0 0 Z " fill="#B6AEDC" transform="translate(140,329)"/>
<path d="M0 0 C1.98 0 3.96 0 6 0 C6 0.66 6 1.32 6 2 C4.02 2.66 2.04 3.32 0 4 C0 2.68 0 1.36 0 0 Z " fill="#F7EFFD" transform="translate(328,323)"/>
<path d="M0 0 C-4.75 4 -4.75 4 -7 4 C-6.625 2.0625 -6.625 2.0625 -6 0 C-3.50907189 -1.24546405 -2.58919267 -0.7767578 0 0 Z " fill="#EFDEFA" transform="translate(312,158)"/>
<path d="M0 0 C3.37462715 0.54723683 5.08235 1.0549 8 3 C7.34 3 6.68 3 6 3 C5.67 3.66 5.34 4.32 5 5 C2.5 3.625 2.5 3.625 0 2 C0 1.34 0 0.68 0 0 Z " fill="#97969B" transform="translate(344,18)"/>
<path d="M0 0 C0 0.66 0 1.32 0 2 C-0.66 2 -1.32 2 -2 2 C-2.33 2.66 -2.66 3.32 -3 4 C-4.98 4 -6.96 4 -9 4 C-8 2 -8 2 -5.625 0.875 C-3 0 -3 0 0 0 Z " fill="#87858B" transform="translate(156,18)"/>
</svg>
